<svg width="13" height="12" viewBox="0 0 13 12" fill="none" xmlns="http://www.w3.org/2000/svg">
<g clip-path="url(#clip0_6121_26628)">
<path d="M9.10474 8.24999C9.02036 7.48959 8.68013 6.78043 8.13984 6.23876C7.59954 5.6971 6.89124 5.35508 6.13106 5.26877C5.37088 5.18247 4.60393 5.357 3.95596 5.76376C3.30798 6.17052 2.81744 6.78536 2.56474 7.50749C1.9857 7.55489 1.44743 7.82443 1.06261 8.25969C0.677799 8.69496 0.476267 9.2622 0.500203 9.84269C0.52414 10.4232 0.77169 10.9719 1.19104 11.374C1.61038 11.7761 2.16901 12.0004 2.74999 12H9.12499C9.62227 12 10.0992 11.8024 10.4508 11.4508C10.8024 11.0992 11 10.6223 11 10.125C11 9.62771 10.8024 9.1508 10.4508 8.79917C10.0992 8.44754 9.62227 8.24999 9.12499 8.24999H9.10474Z" fill="#728363"/>
<path d="M8.96446 1.33351C9.00757 1.269 9.0296 1.19271 9.02753 1.11515C9.02546 1.03759 8.99939 0.962588 8.95291 0.900471C8.90642 0.838354 8.84181 0.792184 8.76799 0.768325C8.69416 0.744466 8.61475 0.744092 8.54071 0.767255C7.76416 1.01045 7.09871 1.52059 6.6622 2.20734C6.22568 2.89409 6.04626 3.71316 6.15571 4.51951C6.42397 4.54559 6.68901 4.59809 6.94696 4.67626C6.83115 4.18268 6.85652 3.66648 7.02018 3.18665C7.18384 2.70681 7.47918 2.28269 7.87246 1.96276C7.74256 2.46362 7.72717 2.98732 7.82743 3.49495C7.92768 4.00258 8.14101 4.4811 8.45156 4.89498C8.76211 5.30886 9.16192 5.64746 9.62128 5.88563C10.0806 6.12381 10.5877 6.25544 11.105 6.27076C10.6135 6.61236 10.0218 6.77975 9.42421 6.74626C9.54571 6.98401 9.64546 7.23526 9.71971 7.49625C10.2612 7.4732 10.7896 7.32261 11.2619 7.05674C11.7342 6.79087 12.1371 6.41724 12.4377 5.96626C12.4808 5.90175 12.5029 5.82546 12.5008 5.7479C12.4987 5.67034 12.4726 5.59534 12.4262 5.53322C12.3797 5.4711 12.3151 5.42493 12.2412 5.40107C12.1674 5.37722 12.088 5.37684 12.014 5.40001C11.482 5.56698 10.9113 5.56484 10.3806 5.39387C9.84992 5.22289 9.38531 4.89151 9.05086 4.4454C8.7164 3.99929 8.52855 3.46042 8.51321 2.90307C8.49787 2.34572 8.65504 1.79734 8.96446 1.33351Z" fill="#728363"/>
</g>
<defs>
<clipPath id="clip0_6121_26628">
<rect width="12" height="12" fill="white" transform="translate(0.5)"/>
</clipPath>
</defs>
</svg>
