<svg width="24" height="24" viewBox="0 0 24 24" fill="none" xmlns="http://www.w3.org/2000/svg">
<path d="M21.2836 8.27596L15.3328 7.41112L12.6727 2.01815C12.6 1.87049 12.4805 1.75096 12.3328 1.6783C11.9625 1.49549 11.5125 1.64784 11.3273 2.01815L8.66718 7.41112L2.7164 8.27596C2.55234 8.2994 2.40234 8.37674 2.2875 8.49393C2.14866 8.63663 2.07215 8.82862 2.07479 9.0277C2.07743 9.22678 2.15899 9.41667 2.30156 9.55565L6.60703 13.7533L5.58984 19.6806C5.56599 19.8185 5.58125 19.9603 5.63389 20.09C5.68652 20.2196 5.77444 20.332 5.88766 20.4142C6.00088 20.4964 6.13487 20.5453 6.27445 20.5552C6.41403 20.5652 6.5536 20.5358 6.67734 20.4705L12 17.6721L17.3227 20.4705C17.468 20.5478 17.6367 20.5736 17.7984 20.5455C18.2062 20.4752 18.4805 20.0885 18.4102 19.6806L17.393 13.7533L21.6984 9.55565C21.8156 9.4408 21.893 9.2908 21.9164 9.12674C21.9797 8.71659 21.6937 8.3369 21.2836 8.27596Z" fill="#212121"/>
</svg>
