<svg width="13" height="12" viewBox="0 0 13 12" fill="none" xmlns="http://www.w3.org/2000/svg">
<g clip-path="url(#clip0_8617_4784)">
<path d="M6.2345 3.6405C6.26933 3.67542 6.31072 3.70313 6.35627 3.72203C6.40183 3.74094 6.45067 3.75067 6.5 3.75067C6.54933 3.75067 6.59817 3.74094 6.64372 3.72203C6.68928 3.70313 6.73067 3.67542 6.7655 3.6405L7.8905 2.5155C7.92537 2.48063 7.95302 2.43924 7.97189 2.39369C7.99076 2.34813 8.00047 2.29931 8.00047 2.25C8.00047 2.20069 7.99076 2.15187 7.97189 2.10631C7.95302 2.06076 7.92537 2.01937 7.8905 1.9845C7.85563 1.94963 7.81424 1.92198 7.76869 1.90311C7.72313 1.88424 7.67431 1.87453 7.625 1.87453C7.57569 1.87453 7.52687 1.88424 7.48131 1.90311C7.43576 1.92198 7.39437 1.94963 7.3595 1.9845L6.875 2.46975V1.125C6.875 1.02554 6.83549 0.930161 6.76517 0.859835C6.69484 0.789509 6.59946 0.75 6.5 0.75C6.40054 0.75 6.30516 0.789509 6.23484 0.859835C6.16451 0.930161 6.125 1.02554 6.125 1.125V2.46975L5.6405 1.9845C5.60563 1.94963 5.56424 1.92198 5.51869 1.90311C5.47313 1.88424 5.42431 1.87453 5.375 1.87453C5.32569 1.87453 5.27687 1.88424 5.23131 1.90311C5.18576 1.92198 5.14437 1.94963 5.1095 1.9845C5.07463 2.01937 5.04698 2.06076 5.02811 2.10631C5.00924 2.15187 4.99953 2.20069 4.99953 2.25C4.99953 2.29931 5.00924 2.34813 5.02811 2.39369C5.04698 2.43924 5.07463 2.48063 5.1095 2.5155L6.2345 3.6405ZM2.25725 3.258C2.32757 3.1877 2.42294 3.1482 2.52238 3.1482C2.62181 3.1482 2.71718 3.1877 2.7875 3.258L3.848 4.31775C3.91631 4.38848 3.95411 4.4832 3.95325 4.58153C3.9524 4.67985 3.91296 4.7739 3.84343 4.84343C3.7739 4.91296 3.67985 4.9524 3.58153 4.95325C3.4832 4.95411 3.38848 4.91631 3.31775 4.848L2.25725 3.7875C2.18695 3.71718 2.14746 3.62181 2.14746 3.52237C2.14746 3.42294 2.18695 3.32832 2.25725 3.258ZM10.7427 3.258C10.8128 3.32829 10.8522 3.4235 10.8522 3.52275C10.8522 3.622 10.8128 3.71721 10.7427 3.7875L9.68225 4.848C9.64766 4.88382 9.60628 4.91238 9.56053 4.93204C9.51477 4.95169 9.46557 4.96204 9.41578 4.96247C9.36598 4.9629 9.3166 4.95341 9.27052 4.93456C9.22443 4.9157 9.18256 4.88786 9.14735 4.85265C9.11214 4.81744 9.0843 4.77557 9.06544 4.72948C9.04659 4.6834 9.0371 4.63402 9.03753 4.58422C9.03796 4.53443 9.04831 4.48522 9.06796 4.43947C9.08762 4.39372 9.11618 4.35234 9.152 4.31775L10.2125 3.25725C10.2828 3.18695 10.3782 3.14745 10.4776 3.14745C10.5771 3.14745 10.6724 3.1877 10.7427 3.258ZM9.28175 8.625C9.46564 8.16963 9.53492 7.67609 9.48352 7.18769C9.43213 6.69929 9.26162 6.23098 8.98696 5.82387C8.71231 5.41676 8.34192 5.0833 7.9083 4.85277C7.47468 4.62223 6.99109 4.50167 6.5 4.50167C6.00891 4.50167 5.52532 4.62223 5.0917 4.85277C4.65808 5.0833 4.28769 5.41676 4.01304 5.82387C3.73838 6.23098 3.56787 6.69929 3.51648 7.18769C3.46508 7.67609 3.53436 8.16963 3.71825 8.625H0.875C0.775544 8.625 0.680161 8.66451 0.609835 8.73483C0.539509 8.80516 0.5 8.90054 0.5 9C0.5 9.09946 0.539509 9.19484 0.609835 9.26517C0.680161 9.33549 0.775544 9.375 0.875 9.375H12.125C12.2245 9.375 12.3198 9.33549 12.3902 9.26517C12.4605 9.19484 12.5 9.09946 12.5 9C12.5 8.90054 12.4605 8.80516 12.3902 8.73483C12.3198 8.66451 12.2245 8.625 12.125 8.625H9.2825H9.28175ZM0.5 7.5C0.5 7.40054 0.539509 7.30516 0.609835 7.23483C0.680161 7.16451 0.775544 7.125 0.875 7.125H2.375C2.47446 7.125 2.56984 7.16451 2.64016 7.23483C2.71049 7.30516 2.75 7.40054 2.75 7.5C2.75 7.59946 2.71049 7.69484 2.64016 7.76517C2.56984 7.83549 2.47446 7.875 2.375 7.875H0.875C0.775544 7.875 0.680161 7.83549 0.609835 7.76517C0.539509 7.69484 0.5 7.59946 0.5 7.5ZM10.25 7.5C10.25 7.40054 10.2895 7.30516 10.3598 7.23483C10.4302 7.16451 10.5255 7.125 10.625 7.125H12.125C12.2245 7.125 12.3198 7.16451 12.3902 7.23483C12.4605 7.30516 12.5 7.40054 12.5 7.5C12.5 7.59946 12.4605 7.69484 12.3902 7.76517C12.3198 7.83549 12.2245 7.875 12.125 7.875H10.625C10.5255 7.875 10.4302 7.83549 10.3598 7.76517C10.2895 7.69484 10.25 7.59946 10.25 7.5Z" fill="#728363"/>
</g>
<defs>
<clipPath id="clip0_8617_4784">
<rect width="12" height="12" fill="white" transform="translate(0.5)"/>
</clipPath>
</defs>
</svg>
