<svg width="21" height="22" viewBox="0 0 21 22" fill="none" xmlns="http://www.w3.org/2000/svg">
<path d="M16.1 8.30006L17.6 5.00006L13.5 4.60006C14.1 5.10006 14.6 5.70006 15 6.50006C15.3 7.10006 15.5 7.60006 15.7 8.20006C15.2 8.10006 14.6 8.00006 14 8.00006H13.6C12.8 6.20006 11.1 5.00006 9.00005 5.00006C6.20005 5.00006 4.00005 7.20006 4.00005 10.0001C4.00005 12.1001 5.20005 13.8001 7.00005 14.6001V15.0001C7.00005 18.9001 10.1 22.0001 14 22.0001C17.9 22.0001 21 18.9001 21 15.0001C21 11.9001 18.9 9.20006 16.1 8.30006ZM14 20.0001C11.2 20.0001 9.00005 17.8001 9.00005 15.0001C9.00005 12.2001 11.2 10.0001 14 10.0001C16.8 10.0001 19 12.2001 19 15.0001C19 17.8001 16.8 20.0001 14 20.0001ZM14.5 15.2001L17.4 16.9001L16.6 18.1001L13 16.0001V11.0001H14.5V15.2001ZM9.00005 3.00006C8.20005 3.00006 7.40005 3.20006 6.60005 3.40006L9.00005 6.10352e-05L11.4 3.40006C10.6 3.20006 9.80005 3.00006 9.00005 3.00006ZM2.90005 13.5001C3.30005 14.2001 3.90005 14.9001 4.50005 15.4001L0.400049 15.0001L2.20005 11.2001C2.30005 12.0001 2.50005 12.8001 2.90005 13.5001ZM2.10005 8.80006L0.300049 5.00006L4.50005 4.70006C3.90005 5.20006 3.40005 5.80006 2.90005 6.50006C2.50005 7.20006 2.20005 8.00006 2.10005 8.80006Z" fill="#212121"/>
</svg>
