<svg width="13" height="12" viewBox="0 0 13 12" fill="none" xmlns="http://www.w3.org/2000/svg">
<g clip-path="url(#clip0_6348_27703)">
<g clip-path="url(#clip1_6348_27703)">
<path d="M6.5 9C7.29565 9 8.05871 8.68393 8.62132 8.12132C9.18393 7.55871 9.5 6.79565 9.5 6C9.5 5.20435 9.18393 4.44129 8.62132 3.87868C8.05871 3.31607 7.29565 3 6.5 3C5.70435 3 4.94129 3.31607 4.37868 3.87868C3.81607 4.44129 3.5 5.20435 3.5 6C3.5 6.79565 3.81607 7.55871 4.37868 8.12132C4.94129 8.68393 5.70435 9 6.5 9ZM6.5 0C6.59946 0 6.69484 0.0395088 6.76517 0.109835C6.83549 0.180161 6.875 0.275544 6.875 0.375V1.875C6.875 1.97446 6.83549 2.06984 6.76517 2.14016C6.69484 2.21049 6.59946 2.25 6.5 2.25C6.40054 2.25 6.30516 2.21049 6.23484 2.14016C6.16451 2.06984 6.125 1.97446 6.125 1.875V0.375C6.125 0.275544 6.16451 0.180161 6.23484 0.109835C6.30516 0.0395088 6.40054 0 6.5 0ZM6.5 9.75C6.59946 9.75 6.69484 9.78951 6.76517 9.85983C6.83549 9.93016 6.875 10.0255 6.875 10.125V11.625C6.875 11.7245 6.83549 11.8198 6.76517 11.8902C6.69484 11.9605 6.59946 12 6.5 12C6.40054 12 6.30516 11.9605 6.23484 11.8902C6.16451 11.8198 6.125 11.7245 6.125 11.625V10.125C6.125 10.0255 6.16451 9.93016 6.23484 9.85983C6.30516 9.78951 6.40054 9.75 6.5 9.75ZM12.5 6C12.5 6.09946 12.4605 6.19484 12.3902 6.26517C12.3198 6.33549 12.2245 6.375 12.125 6.375H10.625C10.5255 6.375 10.4302 6.33549 10.3598 6.26517C10.2895 6.19484 10.25 6.09946 10.25 6C10.25 5.90054 10.2895 5.80516 10.3598 5.73484C10.4302 5.66451 10.5255 5.625 10.625 5.625H12.125C12.2245 5.625 12.3198 5.66451 12.3902 5.73484C12.4605 5.80516 12.5 5.90054 12.5 6ZM2.75 6C2.75 6.09946 2.71049 6.19484 2.64016 6.26517C2.56984 6.33549 2.47446 6.375 2.375 6.375H0.875C0.775544 6.375 0.680161 6.33549 0.609835 6.26517C0.539509 6.19484 0.5 6.09946 0.5 6C0.5 5.90054 0.539509 5.80516 0.609835 5.73484C0.680161 5.66451 0.775544 5.625 0.875 5.625H2.375C2.47446 5.625 2.56984 5.66451 2.64016 5.73484C2.71049 5.80516 2.75 5.90054 2.75 6ZM10.7427 1.75725C10.8131 1.82757 10.8525 1.92294 10.8525 2.02238C10.8525 2.12181 10.8131 2.21718 10.7427 2.2875L9.68225 3.34875C9.64738 3.38357 9.606 3.41118 9.56047 3.43C9.51493 3.44882 9.46613 3.45849 9.41686 3.45846C9.31735 3.45839 9.22194 3.41879 9.15162 3.34837C9.11681 3.31351 9.0892 3.27213 9.07038 3.22659C9.05155 3.18106 9.04188 3.13226 9.04192 3.08298C9.04199 2.98347 9.08159 2.88807 9.152 2.81775L10.2125 1.75725C10.2828 1.68695 10.3782 1.64746 10.4776 1.64746C10.5771 1.64746 10.6724 1.68695 10.7427 1.75725ZM3.848 8.652C3.9183 8.72232 3.95779 8.81769 3.95779 8.91712C3.95779 9.01656 3.9183 9.11193 3.848 9.18225L2.7875 10.2427C2.71677 10.3111 2.62205 10.3489 2.52372 10.348C2.4254 10.3471 2.33135 10.3077 2.26182 10.2382C2.19229 10.1687 2.15285 10.0746 2.152 9.97628C2.15114 9.87795 2.18894 9.78323 2.25725 9.7125L3.31775 8.652C3.38807 8.5817 3.48344 8.5422 3.58287 8.5422C3.68231 8.5422 3.77768 8.5817 3.848 8.652ZM10.7427 10.2427C10.6724 10.3131 10.5771 10.3525 10.4776 10.3525C10.3782 10.3525 10.2828 10.3131 10.2125 10.2427L9.152 9.18225C9.08369 9.11152 9.04589 9.0168 9.04675 8.91847C9.0476 8.82015 9.08704 8.7261 9.15657 8.65657C9.2261 8.58704 9.32015 8.5476 9.41847 8.54675C9.5168 8.54589 9.61152 8.58369 9.68225 8.652L10.7427 9.7125C10.8131 9.78282 10.8525 9.87819 10.8525 9.97763C10.8525 10.0771 10.8131 10.1724 10.7427 10.2427ZM3.848 3.34875C3.77768 3.41905 3.68231 3.45855 3.58287 3.45855C3.48344 3.45855 3.38807 3.41905 3.31775 3.34875L2.25725 2.2875C2.22143 2.25291 2.19287 2.21153 2.17321 2.16578C2.15356 2.12003 2.14321 2.07082 2.14278 2.02103C2.14235 1.97123 2.15184 1.92185 2.17069 1.87577C2.18955 1.82968 2.21739 1.78781 2.2526 1.7526C2.28781 1.71739 2.32968 1.68955 2.37577 1.67069C2.42185 1.65184 2.47123 1.64235 2.52103 1.64278C2.57082 1.64321 2.62003 1.65356 2.66578 1.67321C2.71153 1.69287 2.75291 1.72143 2.7875 1.75725L3.848 2.81775C3.88292 2.85258 3.91063 2.89397 3.92953 2.93952C3.94844 2.98508 3.95817 3.03392 3.95817 3.08325C3.95817 3.13258 3.94844 3.18142 3.92953 3.22698C3.91063 3.27253 3.88292 3.31392 3.848 3.34875Z" fill="#728363"/>
</g>
</g>
<defs>
<clipPath id="clip0_6348_27703">
<rect width="12" height="12" fill="white" transform="translate(0.5)"/>
</clipPath>
<clipPath id="clip1_6348_27703">
<rect width="12" height="12" fill="white" transform="translate(0.5)"/>
</clipPath>
</defs>
</svg>
