<svg width="13" height="12" viewBox="0 0 13 12" fill="none" xmlns="http://www.w3.org/2000/svg">
<g clip-path="url(#clip0_8617_4780)">
<path d="M3.89526 8.24999C3.97964 7.4896 4.31987 6.78043 4.86016 6.23876C5.40046 5.6971 6.10876 5.35508 6.86894 5.26877C7.62912 5.18247 8.39607 5.357 9.04404 5.76376C9.69202 6.17052 10.1826 6.78536 10.4353 7.50749C11.0143 7.55489 11.5526 7.82443 11.9374 8.25969C12.3222 8.69496 12.5237 9.2622 12.4998 9.84269C12.4759 10.4232 12.2283 10.9719 11.809 11.374C11.3896 11.7761 10.831 12.0004 10.25 12H3.87501C3.37773 12 2.90081 11.8024 2.54918 11.4508C2.19755 11.0992 2.00001 10.6223 2.00001 10.125C2.00001 9.62771 2.19755 9.1508 2.54918 8.79917C2.90081 8.44754 3.37773 8.24999 3.87501 8.24999H3.89526Z" fill="#728363"/>
<path d="M4.62496 1.125C4.62496 1.02554 4.66447 0.930161 4.73479 0.859835C4.80512 0.789509 4.9005 0.75 4.99996 0.75C5.09941 0.75 5.1948 0.789509 5.26512 0.859835C5.33545 0.930161 5.37496 1.02554 5.37496 1.125V1.875C5.37496 1.97446 5.33545 2.06984 5.26512 2.14016C5.1948 2.21049 5.09941 2.25 4.99996 2.25C4.9005 2.25 4.80512 2.21049 4.73479 2.14016C4.66447 2.06984 4.62496 1.97446 4.62496 1.875V1.125ZM1.81771 2.598C1.78189 2.56341 1.75332 2.52203 1.73367 2.47628C1.71402 2.43053 1.70367 2.38132 1.70324 2.33153C1.70281 2.28173 1.7123 2.23235 1.73115 2.18627C1.75001 2.14018 1.77785 2.09831 1.81306 2.0631C1.84827 2.02789 1.89014 2.00005 1.93623 1.98119C1.98231 1.96234 2.03169 1.95285 2.08148 1.95328C2.13128 1.95371 2.18048 1.96406 2.22624 1.98371C2.27199 2.00337 2.31337 2.03193 2.34796 2.06775L2.87896 2.598C2.94937 2.66841 2.98893 2.76392 2.98893 2.8635C2.98893 2.96308 2.94937 3.05858 2.87896 3.129C2.80854 3.19941 2.71304 3.23897 2.61346 3.23897C2.51388 3.23897 2.41837 3.19941 2.34796 3.129L1.81771 2.598ZM7.65196 2.06775C7.72268 1.99944 7.81741 1.96164 7.91573 1.9625C8.01406 1.96335 8.10811 2.00279 8.17764 2.07232C8.24717 2.14185 8.28661 2.2359 8.28746 2.33422C8.28832 2.43255 8.25052 2.52727 8.18221 2.598L7.65196 3.129C7.61709 3.16387 7.5757 3.19152 7.53015 3.21039C7.48459 3.22926 7.43577 3.23897 7.38646 3.23897C7.33715 3.23897 7.28833 3.22926 7.24277 3.21039C7.19722 3.19152 7.15582 3.16387 7.12096 3.129C7.08609 3.09413 7.05844 3.05274 7.03957 3.00719C7.0207 2.96163 7.01098 2.91281 7.01098 2.8635C7.01098 2.81419 7.0207 2.76537 7.03957 2.71981C7.05844 2.67426 7.08609 2.63287 7.12096 2.598L7.65196 2.06775ZM6.35146 4.59825C6.25824 4.40508 6.12469 4.23415 5.95979 4.09698C5.7949 3.95981 5.60251 3.8596 5.3956 3.80311C5.18869 3.74662 4.97207 3.73516 4.76035 3.7695C4.54863 3.80384 4.34674 3.88319 4.1683 4.00219C3.98985 4.12119 3.839 4.27707 3.72592 4.45933C3.61284 4.64158 3.54016 4.84597 3.51279 5.0587C3.48541 5.27143 3.50398 5.48756 3.56723 5.69251C3.63048 5.89745 3.73695 6.08645 3.87946 6.24675C3.73021 6.4575 3.60046 6.68325 3.49246 6.92025C3.23829 6.6906 3.03991 6.40595 2.91245 6.08799C2.78498 5.77004 2.7318 5.42718 2.75695 5.08555C2.78211 4.74392 2.88493 4.41255 3.05759 4.11669C3.23025 3.82083 3.46819 3.56831 3.75325 3.37836C4.03832 3.18841 4.36299 3.06606 4.70252 3.02064C5.04205 2.97522 5.38746 3.00792 5.71243 3.11625C6.03741 3.22458 6.33335 3.40568 6.57771 3.64574C6.82207 3.88581 7.00839 4.1785 7.12246 4.5015C6.85846 4.50975 6.60046 4.54275 6.35146 4.59825ZM2.98846 7.65375C2.53846 7.815 2.14471 8.09625 1.84696 8.45775C1.80613 8.42468 1.7727 8.38341 1.74885 8.33659C1.72499 8.28978 1.71124 8.23848 1.70848 8.18601C1.70572 8.13354 1.71402 8.08108 1.73284 8.03202C1.75165 7.98297 1.78057 7.93841 1.81771 7.90125L2.34796 7.371C2.40142 7.31722 2.46993 7.28091 2.54444 7.26687C2.61896 7.25282 2.69598 7.26169 2.76535 7.29232C2.83472 7.32294 2.89318 7.37388 2.93301 7.4384C2.97284 7.50293 2.99217 7.57801 2.98846 7.65375ZM1.62496 4.875C1.72441 4.875 1.8198 4.91451 1.89012 4.98484C1.96045 5.05516 1.99996 5.15054 1.99996 5.25C1.99996 5.34946 1.96045 5.44484 1.89012 5.51516C1.8198 5.58549 1.72441 5.625 1.62496 5.625H0.874959C0.775502 5.625 0.680119 5.58549 0.609793 5.51516C0.539467 5.44484 0.499959 5.34946 0.499959 5.25C0.499959 5.15054 0.539467 5.05516 0.609793 4.98484C0.680119 4.91451 0.775502 4.875 0.874959 4.875H1.62496Z" fill="#728363"/>
</g>
<defs>
<clipPath id="clip0_8617_4780">
<rect width="12" height="12" fill="white" transform="matrix(-1 0 0 1 12.5 0)"/>
</clipPath>
</defs>
</svg>
