<svg width="32" height="33" viewBox="0 0 32 33" fill="none" xmlns="http://www.w3.org/2000/svg">
<path d="M15.1751 17.404C15.1751 13.248 11.3353 10.7426 9.11973 9.87667C8.95131 9.81085 8.7751 9.93882 8.77271 10.1196C8.70425 15.2861 7.21701 19.6363 6.31914 21.5236C6.23656 21.6971 6.35577 21.9032 6.54725 21.92C10.7714 22.2896 13.2741 24.6317 14.4674 26.5207C14.627 26.7733 15.1751 26.6524 15.1751 26.3536V17.404Z" fill="#5B4A30"/>
<path d="M16.7586 17.404C16.7586 13.248 20.5984 10.7426 22.814 9.87667C22.9824 9.81085 23.1586 9.93882 23.161 10.1196C23.2295 15.2861 24.7167 19.6363 25.6146 21.5236C25.6971 21.6971 25.5779 21.9032 25.3865 21.92C21.1623 22.2896 18.6596 24.6317 17.4664 26.5207C17.3068 26.7733 16.7586 26.6524 16.7586 26.3536V17.404Z" fill="#5B4A30"/>
<path d="M4.55116 22.2413C6.71459 17.0738 7.32107 13.4301 7.19168 12.6538C7.05973 11.862 4.88243 11.994 4.22264 14.1713C3.59761 16.2339 1.51207 21.6517 0.209641 24.3109C0.119159 24.4956 0.265472 24.7105 0.470927 24.7003C7.82564 24.337 12.1715 27.275 13.9078 29.331C14.0789 29.5336 14.4186 29.416 14.3691 29.1554C13.6287 25.2582 7.96045 23.224 4.74942 22.61C4.58193 22.578 4.4853 22.3986 4.55116 22.2413Z" fill="#5B4A30"/>
<path d="M27.4488 22.2413C25.2854 17.0738 24.6789 13.4301 24.8083 12.6538C24.9403 11.862 27.1176 11.994 27.7774 14.1713C28.4024 16.2339 30.4879 21.6517 31.7904 24.3109C31.8808 24.4956 31.7345 24.7105 31.5291 24.7003C24.1744 24.337 19.8285 27.275 18.0922 29.331C17.9211 29.5336 17.5814 29.416 17.6309 29.1554C18.3713 25.2582 24.0395 23.224 27.2506 22.61C27.4181 22.578 27.5147 22.3986 27.4488 22.2413Z" fill="#5B4A30"/>
<path d="M10.8445 28.6723C10.5523 27.8442 9.45282 27.4671 8.87867 27.373C8.85354 27.3689 8.82728 27.3679 8.80553 27.3811C8.47076 27.5849 7.67956 29.8889 7.14259 31.5982C7.06227 31.8539 7.36978 32.0472 7.56722 31.8659L10.7743 28.9217C10.8437 28.858 10.8759 28.7611 10.8445 28.6723Z" fill="#5B4A30"/>
<path d="M21.0232 28.6723C21.3154 27.8442 22.4149 27.4671 22.9891 27.373C23.0142 27.3689 23.0404 27.3679 23.0622 27.3811C23.397 27.5849 24.1882 29.8889 24.7251 31.5982C24.8055 31.8539 24.498 32.0472 24.3005 31.8659L21.0934 28.9217C21.024 28.858 20.9918 28.7611 21.0232 28.6723Z" fill="#5B4A30"/>
<path fill-rule="evenodd" clip-rule="evenodd" d="M19.4127 9.6167C19.0174 9.71212 18.6046 9.76268 18.18 9.76268C15.2892 9.76268 12.9457 7.4192 12.9457 4.52836C12.9457 2.90083 13.6885 1.44678 14.8536 0.486756C12.5576 1.041 10.852 3.10886 10.852 5.5751C10.852 8.46593 13.1954 10.8094 16.0863 10.8094C17.3496 10.8094 18.5083 10.3619 19.4127 9.6167Z" fill="#5B4A30"/>
<path d="M17.4472 1.59717L18.2228 3.98427H20.7328L18.7022 5.45958L19.4778 7.84669L17.4472 6.37138L15.4166 7.84669L16.1922 5.45958L14.1616 3.98427H16.6716L17.4472 1.59717Z" fill="#5B4A30"/>
</svg>
