<svg width="115" height="135" viewBox="0 0 115 135" fill="none" xmlns="http://www.w3.org/2000/svg"><path d="M115.4 113.663c7.131-12.683 21.281-9.114 27.981-20.14 4.163-6.848 4.402-17.476-7.025-28.744-9.12-8.99-3.384-22.081-3.384-22.081 2.431-10.023-4.465-19.804-14.608-20.172-10.457-.379-18.87 2.324-24.747-7.915S75.098-6.96 59.594 5.408C47.264 15.242 43.22 19.71 26.64 15.574 5.744 10.36-4.266 32.459 1.71 45.019q.448.936.906 1.816c5.837 11.191 17.151 19.279 9.313 31.872-12.948 20.85-8.35 38.448 2.848 45.816 12.105 7.967 31.54-4.741 41.095 2.393 10.272 7.656 16.843 20.843 35.215 18.698 21.64-2.5 19.685-23.728 24.313-31.951" fill="#fff6cf"/><path d="M115.4 113.663c7.131-12.683 21.281-9.114 27.981-20.14 4.163-6.848 4.402-17.476-7.025-28.744-9.12-8.99-3.384-22.081-3.384-22.081 2.431-10.023-4.465-19.804-14.608-20.172-10.457-.379-18.87 2.324-24.747-7.915S75.098-6.96 59.594 5.408C47.264 15.242 43.22 19.71 26.64 15.574 5.744 10.36-4.266 32.459 1.71 45.019q.448.936.906 1.816c5.837 11.191 17.151 19.279 9.313 31.872-12.948 20.85-8.35 38.448 2.848 45.816 12.105 7.967 31.54-4.741 41.095 2.393 10.272 7.656 16.843 20.843 35.215 18.698 21.64-2.5 19.685-23.728 24.313-31.951" fill="#728363"/><path d="M87.495 35.661c3.344-8.216-.605-17.588-8.821-20.932-8.216-3.345-17.588.604-20.933 8.82s.605 17.589 8.821 20.933 17.588-.605 20.933-8.82" fill="#fff"/><mask id="a" style="mask-type:luminance" maskUnits="userSpaceOnUse" x="-1" y="0" width="148" height="146"><path d="M115.4 113.663c7.131-12.683 21.281-9.114 27.981-20.14 4.163-6.848 4.402-17.476-7.025-28.744-9.12-8.99-3.384-22.081-3.384-22.081 2.431-10.023-4.465-19.804-14.608-20.172-10.457-.379-18.87 2.324-24.747-7.915S75.098-6.96 59.594 5.408C47.264 15.242 43.22 19.71 26.64 15.574 5.744 10.36-4.266 32.459 1.71 45.019q.448.936.906 1.816c5.837 11.191 17.151 19.279 9.313 31.872-12.948 20.85-8.35 38.448 2.848 45.816 12.105 7.967 31.54-4.741 41.095 2.393 10.272 7.656 16.843 20.843 35.215 18.698 21.64-2.5 19.685-23.728 24.313-31.951" fill="#fff"/></mask><g mask="url(#a)"><path d="M86.386 66.834h-3.054V63.79h-3.775v-3.722h1.172v-2.433h-3.652c.628-1.823-1.208-2.656-2.065-2.905a1.73 1.73 0 0 1-.943-.664.21.21 0 0 0 .106-.183.22.22 0 0 0-.139-.2.16.16 0 0 0 .086-.139.16.16 0 0 0-.106-.152l-.09-2.36-.036 2.366a.16.16 0 0 0-.09.146.16.16 0 0 0 .087.14.215.215 0 0 0-.108.305.2.2 0 0 0 .078.077 1.73 1.73 0 0 1-.947.664c-.54.166-1.47.554-1.925 1.275.737-2.776-2.112-4.038-3.47-4.456a2.74 2.74 0 0 1-1.606-1.152.279.279 0 0 0-.02-.511.212.212 0 0 0 .075-.308.2.2 0 0 0-.102-.077l-.116-3.095-.05 3.105a.21.21 0 0 0-.116.189.21.21 0 0 0 .113.186.276.276 0 0 0 0 .514 2.74 2.74 0 0 1-1.604 1.15 7.2 7.2 0 0 0-2.354 1.204v-1.51h-1.992c1.66-6.494-5.016-9.45-8.2-10.435-2.102-.664-3.167-1.783-3.652-2.527a.85.85 0 0 0-.073-1.56.64.64 0 0 0 .332-.568.66.66 0 0 0-.106-.358 3.337 3.337 0 0 0 3.16-3.32v-.236a2.872 2.872 0 1 1-3.09-3.09h-.236a3.337 3.337 0 0 0-.82 6.573.64.64 0 0 0-.099.782.66.66 0 0 0 .241.24.846.846 0 0 0-.093 1.55c-.498.744-1.563 1.886-3.675 2.537-2.818.873-8.383 3.29-8.459 8.35-1.182-1.912-3.652-2.935-5.063-3.373-1.547-.478-2.268-1.328-2.566-1.836a.448.448 0 0 0 .195-.666.45.45 0 0 0-.209-.164.331.331 0 0 0 0-.598l-.073-4.98-.229 4.927a.33.33 0 0 0-.226.332.33.33 0 0 0 .183.296.445.445 0 0 0-.037.82c-.292.488-.995 1.364-2.57 1.846-2.167.663-6.722 2.685-5.544 7.124-.73-1.152-2.217-1.773-3.084-2.041a2.74 2.74 0 0 1-1.51-1.033.33.33 0 0 0 .169-.292.33.33 0 0 0-.22-.332.253.253 0 0 0 0-.455l-.056-3.788-.142 3.775a.255.255 0 0 0-.034.468.33.33 0 0 0-.219.332.33.33 0 0 0 .17.292 2.74 2.74 0 0 1-1.511 1.032c-1.371.425-4.316 1.73-3.303 4.648H5.11v20.757h74.447v-4.402h6.83z" fill="#425e31"/><path d="M50.026 59.756a4.58 4.58 0 0 1-2.533-2.048 4.6 4.6 0 0 1-2.537 2.048c-1.859.664-2.809 1.736-2.809 4.897v14.425h10.688V64.65c0-3.16-.95-4.23-2.81-4.894m-11.679-7.888a.73.73 0 0 1-.422-.282.75.75 0 0 1-.425.282c-.308.09-.464.235-.464.664v1.972h1.78v-1.972c0-.412-.16-.575-.469-.664m3.187 0a.75.75 0 0 1-.421-.282.75.75 0 0 1-.422.282c-.309.09-.468.235-.468.664v1.972h1.78v-1.972c0-.412-.17-.575-.469-.664m3.191 0a.75.75 0 0 1-.422-.282.75.75 0 0 1-.422.282c-.312.09-.468.235-.468.664v1.972h1.78v-1.972c0-.412-.16-.575-.468-.664m3.19 0a.73.73 0 0 1-.421-.282.75.75 0 0 1-.425.282c-.309.09-.468.235-.468.664v1.972h1.782v-1.972c0-.412-.159-.575-.468-.664m3.187 0a.75.75 0 0 1-.421-.282.75.75 0 0 1-.422.282c-.309.09-.468.235-.468.664v1.972h1.78v-1.972c0-.412-.157-.575-.469-.664m3.191 0a.75.75 0 0 1-.422-.282.75.75 0 0 1-.421.282c-.312.09-.468.235-.468.664v1.972h1.78v-1.972c0-.412-.16-.575-.469-.664m3.19 0a.75.75 0 0 1-.425-.282.73.73 0 0 1-.421.282c-.309.09-.468.235-.468.664v1.972h1.783v-1.972c0-.412-.16-.575-.469-.664m3.872 5.272a.222.222 0 0 0-.405 0 .28.28 0 0 0-.224.221.3.3 0 0 0 .001.11v.944h.85v-.943c0-.216-.073-.286-.222-.332m1.523 0a.223.223 0 0 0-.405 0 .28.28 0 0 0-.222.332v.943h.85v-.943a.28.28 0 0 0-.12-.29.3.3 0 0 0-.103-.042m1.531 0a.222.222 0 0 0-.405 0 .28.28 0 0 0-.224.221.3.3 0 0 0 .002.11v.944h.85v-.943a.28.28 0 0 0-.223-.332m1.517 0a.223.223 0 0 0-.405 0 .28.28 0 0 0-.223.221.3.3 0 0 0 0 .11v.944h.85v-.943a.28.28 0 0 0-.222-.332m1.525 0a.223.223 0 0 0-.406 0 .28.28 0 0 0-.222.332v.943h.85v-.943a.28.28 0 0 0-.223-.332m1.524 0a.223.223 0 0 0-.405 0 .28.28 0 0 0-.222.332v.943h.85v-.943a.28.28 0 0 0-.223-.332m1.524 0a.223.223 0 0 0-.405 0 .28.28 0 0 0-.223.332v.943h.847v-.943a.28.28 0 0 0-.22-.332m-49.201-.25a.52.52 0 0 1-.293-.192.5.5 0 0 1-.292.193c-.212.063-.332.163-.332.461v1.362h1.229v-1.362c.01-.298-.097-.398-.312-.461m2.205-.001a.5.5 0 0 1-.293-.192.52.52 0 0 1-.292.193c-.216.063-.332.163-.332.461v1.362h1.228v-1.362c.01-.298-.1-.398-.312-.461m2.201-.001a.52.52 0 0 1-.292-.192.5.5 0 0 1-.292.193c-.212.063-.332.163-.332.461v1.362h1.228v-1.362c.01-.298-.096-.398-.312-.461m2.205-.001a.5.5 0 0 1-.293-.192.52.52 0 0 1-.292.193c-.215.063-.332.163-.332.461v1.362h1.232v-1.362c0-.298-.103-.398-.315-.461m2.201-.001a.52.52 0 0 1-.292-.192.5.5 0 0 1-.293.193c-.212.063-.332.163-.332.461v1.362h1.229v-1.362c.01-.298-.096-.398-.312-.461m2.201-.001a.5.5 0 0 1-.289-.192.52.52 0 0 1-.292.193c-.216.063-.332.163-.332.461v1.362h1.228v-1.362c.01-.298-.086-.398-.315-.461m2.221-.001a.5.5 0 0 1-.292-.192.5.5 0 0 1-.292.193c-.213.063-.332.163-.332.461v1.362h1.228v-1.362c-.006-.298-.116-.398-.312-.461" fill="#f9f9f9"/></g><path d="M143.381 93.524a18 18 0 0 0 2.616-9.373C87.933 63.408 37.629 69.032 14.133 73.776a18.3 18.3 0 0 1-2.204 4.947c-12.948 20.85-8.35 38.449 2.848 45.816 12.105 7.968 31.54-4.741 41.095 2.394 10.272 7.656 16.843 20.843 35.215 18.698 21.64-2.53 19.685-23.755 24.313-31.978 7.131-12.673 21.281-9.104 27.981-20.13" fill="#1e3e13"/><path d="m92.07 137.49-78.747-11.849 45.441-47.88 53.847 8.104z" fill="#e9f2da"/><path d="m112.398 86.363-54.089-8.138 1.328-1.4L113 84.854c-.242.601-.362.903-.601 1.507m-20.412 51.342-78.85-11.862.873-.923 78.37 11.792z" fill="#e9f2da"/><path d="m89.228 134.333-69.77-10.501 39.774-43.273 49.591 7.463q-9.794 23.157-19.595 46.311" fill="#728363"/><path d="m59.777 77.067-.243-.037 2.527-2.656.235.037zm.478.069-.243-.036 2.513-2.656.236.036zm.478.074-.246-.037L62.99 74.5l.24.037zm.477.069-.245-.036 2.493-2.656.236.033zm.476.073-.243-.037 2.48-2.656.236.034zm.478.073-.243-.036 2.467-2.676.236.033zm.478.07-.243-.037 2.454-2.676.236.037zm.478.073-.243-.037 2.44-2.679.236.037zm.478.072-.242-.036 2.426-2.682.24.036zm.478.07-.242-.036c.966-1.072 1.447-1.61 2.417-2.683l.235.037zm.478.074-.242-.037c.96-1.076 1.44-1.61 2.403-2.686l.236.037zm.478.073-.242-.037 2.39-2.689.236.037zm.478.069-.245-.036 2.38-2.69.236.037zm.478.09-.245-.037 2.367-2.692.236.036zm.475.057-.242-.037 2.354-2.693.239.034zm.478.069-.242-.036c.936-1.076 1.404-1.617 2.344-2.693l.235.033c-.936 1.08-1.4 1.62-2.337 2.696m.479.073-.243-.036 2.324-2.696.236.033zm.477.073-.242-.036c.926-1.082 1.391-1.62 2.324-2.7l.236.037zm.495.06-.242-.037 2.304-2.699.236.037zm.461.083-.242-.037 2.29-2.702.237.037zm.479.073-.243-.036 2.278-2.706.239.036zm.478.07-.243-.037 2.268-2.706.235.037zm.478.073-.246-.037 2.258-2.709.235.037zm.478.073-.246-.037 2.244-2.712.236.036zm.474.07-.242-.037 2.231-2.712.236.036zm.472.073-.242-.037 2.218-2.712.239.033zm.485.069-.243-.036 2.205-2.713.239.034c-.88 1.089-1.322 1.63-2.201 2.715m.478.08-.243-.037 2.195-2.715.236.033c-.877 1.082-1.312 1.627-2.188 2.719m.478.066-.243-.036 2.182-2.72.235.037zm.478.07-.242-.036 2.168-2.72.235.037zm.479.073-.243-.036 2.154-2.723.236.037zm.477.073-.242-.036 2.141-2.726.24.037a712 712 0 0 0-2.139 2.725m.478.07-.242-.037c.85-1.088 1.278-1.633 2.128-2.725l.239.036zm.478.073-.245-.037 2.121-2.729.236.037zm.485.073-.242-.037 2.108-2.732.236.037zm.468.07-.242-.037c.84-1.092 1.258-1.637 2.095-2.732l.235.036zm.478.073-.242-.037 2.081-2.732.236.033zm.478.073-.242-.037 2.068-2.735.24.033zm.478.07-.242-.037c.823-1.096 1.235-1.64 2.055-2.736l.24.034zm.478.073-.242-.037 2.045-2.739.236.033zm.478.073-.242-.037 2.032-2.742.236.036zm.478.066-.242-.036 2.019-2.743.235.037zm.479.076-.243-.036c.8-1.099 1.202-1.66 1.992-2.746l.236.037zm.477.073-.245-.036c.8-1.099 1.198-1.66 1.992-2.75l.239.038c-.793 1.098-1.192 1.646-1.985 2.748m.475.07-.243-.036 1.992-2.75.24.037c-.8 1.1-1.196 1.65-1.99 2.75m.479.072-.243-.036 1.972-2.753.236.037zm.478.073-.243-.036 1.96-2.756.235.037zm.478.07-.243-.037 1.946-2.755.235.036zm.478.073-.243-.037 1.933-2.755.235.033zm.478.07-.242-.037 1.919-2.755.239.033zm.478.086-.242-.037 1.905-2.758.24.033zm.478.06-.242-.037 1.895-2.762.236.037a804 804 0 0 0-1.889 2.762m.478.07-.242-.037c.75-1.106 1.129-1.66 1.882-2.762l.236.036zm.478.073-.245-.037 1.872-2.765.236.036zm.475.073-.242-.037 1.859-2.769.236.037zm.478.056-.242-.037c.74-1.105 1.109-1.66 1.846-2.768l.239.036zm.478.086-.242-.036c.733-1.109 1.102-1.66 1.832-2.772l.24.036zm.478.073-.242-.036 1.823-2.776.235.037zm.478.07-.242-.036 1.81-2.776.235.037zm.495.073-.243-.036c.718-1.112 1.08-1.66 1.797-2.776l.235.033a145 145 0 0 0-1.79 2.78m.462.073-.242-.037c.714-1.112 1.069-1.66 1.783-2.78l.236.034zm.479.069-.243-.037 1.77-2.778.239.033zm.478.073-.243-.037 1.757-2.782.239.037zm.478.073-.246-.037 1.75-2.785.235.037a776 776 0 0 0-1.74 2.785m.479.073-.246-.037 1.736-2.785.236.037zm.475.07-.243-.037 1.723-2.789.236.037zm.471.072-.242-.036 1.71-2.792.235.037zm.485.07-.243-.036c.664-1.115 1.02-1.66 1.697-2.792l.239.036zm.478.074-.243-.037 1.684-2.795.239.036zm.477.073-.241-.037 1.66-2.799.235.037zm.479.069-.242-.036 1.66-2.796.235.034zm.478.074-.242-.037 1.66-2.799.235.033zm.478.07-.242-.037 1.633-2.8.236.034zm.478.072-.246-.036c.665-1.123.977-1.68 1.624-2.802l.239.036c-.654 1.119-.986 1.68-1.617 2.802m.475.073-.243-.036c.645-1.123.967-1.684 1.614-2.806l.236.037zm.488.07-.242-.037 1.6-2.805.236.037zm.468.073-.242-.037 1.587-2.808.235.036c-.63 1.122-.946 1.687-1.58 2.809m.478.073-.242-.037 1.574-2.812.235.037zm.478.063-.242-.037 1.56-2.811.236.036zm.478.08-.242-.037 1.547-2.815.239.036zm.478.073-.242-.037c.614-1.129.92-1.69 1.537-2.818l.236.036c-.614 1.129-.923 1.69-1.53 2.819m.478.07-.243-.037 1.524-2.815.236.033zm.478.073-.243-.037 1.511-2.819.236.034zm.477.073-.245-.037 1.5-2.822.236.033zm.479.069-.246-.036 1.487-2.822.236.036zm.474.073-.242-.036c.591-1.129.887-1.697 1.474-2.825l.239.036zm.478.073-.242-.036 1.464-2.829.236.037c-.584 1.129-.873 1.696-1.458 2.828m.479.08-.243-.037 1.451-2.828.236.036zm.478.063-.243-.036 1.438-2.832.235.036c-.571 1.132-.856 1.7-1.43 2.832m.478.073-.243-.036 1.425-2.836.235.037zm.478.07-.243-.037 1.411-2.835.236.037zm.478.073-.242-.037 1.397-2.838.239.036zm.478.07-.242-.037c.554-1.132.83-1.7 1.387-2.835l.236.033c-.554 1.136-.83 1.703-1.381 2.839m.478.073-.246-.037 1.378-2.838.236.033zm.478.073-.246-.037 1.365-2.842.236.034zm.475.069-.243-.036 1.352-2.842.235.037zm.478.074-.243-.037 1.328-2.845.236.036a279 279 0 0 1-1.321 2.846m.478.073-.242-.037 1.328-2.849.239.037zm.478.069-.242-.036c.524-1.14.787-1.71 1.328-2.849l.235.037c-.537 1.138-.796 1.71-1.321 2.848m.478.073-.242-.036c.521-1.139.78-1.71 1.301-2.852l.236.036zm.495.073-.243-.036 1.289-2.855.235.036zm.461.07-.242-.037c.508-1.142.764-1.713 1.275-2.855l.236.037zm.478.073-.242-.036 1.262-2.859.235.037c-.501 1.145-.753 1.716-1.255 2.858m.479.073-.243-.036c.498-1.146.75-1.717 1.248-2.859l.24.033zm.478.07-.246-.037c.498-1.142.744-1.716 1.242-2.858l.235.033c-.494 1.145-.74 1.72-1.231 2.862m.474.073-.242-.037 1.228-2.861.236.033zm.478.073-.242-.037 1.215-2.865.236.037c-.481 1.145-.737 1.716-1.209 2.865m.472.07-.242-.037 1.201-2.865.236.037zm.484.073-.242-.037 1.189-2.868.239.036c-.475 1.146-.711 1.72-1.186 2.869m.479.073-.243-.037c.472-1.148.708-1.723 1.176-2.872l.239.037zm.478.086-.243-.037c.465-1.148.698-1.723 1.166-2.871l.235.036a210 210 0 0 0-1.158 2.872m.478.057-.243-.037 1.152-2.875.236.036zM11.952 127.657l-.365-.054 2.53-2.656.355.054zm.718.109-.363-.056 2.517-2.656.355.053zm.713.106-.362-.056 2.503-2.656.356.053zm.714.107-.362-.054 2.49-2.672.355.053zm.71.106-.362-.053 2.48-2.656.356.053zm.714.109-.362-.046 2.467-2.676.355.053zm.714.107-.362-.053 2.454-2.68.355.053zm.697.106-.332-.053 2.444-2.679.355.053zm.728.109-.363-.056 2.43-2.683.356.057zm.713.107-.362-.053 2.414-2.686.358.053zm.71.106-.362-.053c.963-1.076 1.445-1.61 2.404-2.686l.359.053zm.714.109-.362-.056 2.39-2.686.36.053zm.714.107-.362-.057 2.377-2.689.359.057zm.714.106-.365-.053c.95-1.076 1.42-1.617 2.367-2.693l.355.053zm.71.11-.355-.057 2.354-2.692.355.053c-.943 1.079-1.414 1.617-2.354 2.696m.714.106-.362-.057 2.34-2.692.356.053zm.714.106-.365-.053 2.324-2.699.355.056zm.71.103-.362-.053 2.324-2.699.356.053a1256 1256 0 0 1-2.318 2.699m.714.113-.362-.057 2.304-2.712.356.053zm.714.106-.362-.053 2.291-2.703.355.054zm.727.113-.362-.053 2.281-2.706.355.056zm.697.103-.365-.057 2.27-2.702.356.053c-.903 1.079-1.358 1.607-2.26 2.706m.713.106-.362-.056 2.271-2.706.355.053zm.711.123-.363-.053 2.245-2.709.355.053zm.713.093-.362-.057 2.232-2.712.355.053zm.714.106-.362-.056 2.218-2.713.355.053zm.713.106-.364-.053 2.207-2.715.356.053zm.718.107-.362-.054 2.195-2.715.355.053zm.707.109-.375-.056 2.181-2.719.356.053zm.715.106-.366-.053 2.171-2.722.355.053zm.71.107-.363-.053 2.159-2.723.355.053zm.713.109-.362-.056 2.142-2.723.358.054a777 777 0 0 0-2.138 2.725m.714.106-.362-.053 2.128-2.729.359.053zm.711.107-.362-.053 2.118-2.729.358.053zm.71.109-.362-.056 2.105-2.729.359.053c-.837 1.092-1.259 1.637-2.102 2.732m.717.107-.362-.057 2.092-2.729.358.053zm.711.106-.362-.053 2.081-2.736.359.053zm.714.106-.362-.053 2.068-2.736.355.053a764 764 0 0 1-2.062 2.736m.714.11-.362-.057c.82-1.096 1.232-1.64 2.056-2.736l.355.054zm.711.106-.362-.053c.82-1.096 1.228-1.644 2.045-2.743l.355.057zm.714.106-.362-.053 2.032-2.742.355.053zm.7.11-.332-.057 2.019-2.742.355.053zm.727.106-.365-.053 1.992-2.746.355.053zm.711.106-.362-.053 1.992-2.749.355.056c-.79 1.099-1.189 1.647-1.986 2.746m.715.11-.362-.057 1.992-2.749.355.053zm.713.106-.365-.057 1.972-2.749.355.054zm.711.106-.362-.053 1.959-2.752.355.053zm.714.106-.362-.053 1.945-2.755.356.056zm.713.1-.362-.057c.77-1.102 1.159-1.66 1.933-2.755l.355.053zm.711.116-.362-.053 1.922-2.759.362.04zm.714.106-.362-.053 1.902-2.759.355.053zm.714.11-.363-.057 1.896-2.762.355.053zm.71.106-.362-.053 1.886-2.766.355.054c-.75 1.105-1.126 1.663-1.88 2.765m.715.106-.362-.053 1.869-2.765.358.053zm.73.12-.362-.057 1.856-2.765.358.053zm.694.096-.362-.056c.74-1.106 1.109-1.66 1.846-2.769l.358.053zm.714.106-.362-.053 1.832-2.772.359.053zm.714.11-.362-.056 1.819-2.773.358.053zm.714.106-.366-.056 1.81-2.772.358.053c-.724 1.109-1.082 1.663-1.803 2.775m.711.106-.362-.053 1.796-2.778.355.053c-.713 1.112-1.072 1.666-1.79 2.778m.715.107-.362-.053 1.782-2.779.356.053zm.72.109-.365-.056c.71-1.112 1.066-1.66 1.773-2.779l.355.053zm.704.107-.362-.054 1.76-2.785.355.056zm.714.106-.362-.053c.697-1.116 1.049-1.66 1.746-2.786l.355.053a731 731 0 0 1-1.74 2.786m.715.109-.362-.056 1.733-2.786.355.054zm.71.107-.362-.054 1.723-2.788.355.053zm.714.106-.362-.053 1.71-2.792.355.056zm.713.109-.361-.056 1.696-2.792.355.053zm.711.107-.362-.057 1.687-2.792.355.053zm.714.106-.362-.053 1.66-2.796.355.053zm.714.106-.362-.053 1.66-2.799.355.057zm.71.11-.362-.057 1.66-2.799.355.054zm.714.106-.362-.053 1.637-2.802.355.053zm.714.106-.362-.053a704 704 0 0 1 1.623-2.802l.355.053zm.714.11-.366-.057c.645-1.122.967-1.683 1.614-2.805l.355.056c-.644 1.122-.963 1.684-1.603 2.806m.7.106-.362-.053 1.6-2.809.356.053zm.724.106-.362-.053c.634-1.125.95-1.687 1.587-2.809l.355.053zm.714.11-.366-.057a990 990 0 0 0 1.574-2.808l.359.053c-.628 1.122-.943 1.683-1.568 2.812m.711.106-.362-.056 1.56-2.813.36.054zm.714.093-.362-.053 1.547-2.816.359.054zm.714.119-.362-.053 1.534-2.815.358.053c-.614 1.126-.92 1.7-1.53 2.815m.71.11-.362-.056 1.524-2.816.359.053zm.714.103-.362-.053 1.51-2.822.36.053zm.714.109-.362-.053 1.497-2.822.355.053c-.594 1.129-.896 1.694-1.49 2.822m.71.11-.362-.056 1.488-2.822.355.053zm.714.113-.362-.053c.591-1.132.883-1.697 1.474-2.826l.356.054zm.714.1-.362-.054 1.46-2.828.356.053zm.71.109-.362-.056 1.451-2.829.355.053zm.714.123-.362-.057 1.438-2.828.355.053zm.714.09-.362-.054c.568-1.135.853-1.699 1.424-2.832l.355.054zm.714.106-.366-.053c.568-1.132.85-1.7 1.415-2.836l.355.054zm.71.109-.362-.056c.561-1.132.84-1.7 1.401-2.835l.356.053zm.714.107-.362-.054 1.388-2.838.355.053zm.714.106-.362-.053 1.374-2.842.356.056zm.71.109-.362-.056c.545-1.135.82-1.703 1.365-2.842l.355.053a820 820 0 0 1-1.358 2.845m.724.107-.362-.053 1.351-2.846.356.053z" fill="#e9f2da"/><path d="M98.272 99.623c1.232-2.856-1.866-6.733-8.34-7.636l-.488-.063c-.823-1.946-3.549-3.759-7.636-4.373s-8.492.126-11.51 1.49q-.218-.04-.442-.072c-6.387-.94-13.662 1.255-15.995 4.037-1.66 1.992-1.143 4.359 2.051 5.999l-12.828 15.84c-3.652 4.777 3.592 9.608 13.542 10.982 9.475 1.348 22.012-.162 24.312-5.288q4.3-8.26 8.593-16.531c4.535-.501 7.808-2.264 8.741-4.385" fill="#1e3e13"/><path d="M63.385 125.681a44.5 44.5 0 0 1-6.308-.441c-6.64-.907-11.952-3.543-13.203-6.557-.532-1.289-.332-2.563.607-3.795l12.862-16.105c-1.66-.784-2.693-1.81-2.965-2.988a3.04 3.04 0 0 1 .75-2.656c1.992-2.404 8.317-4.476 14.23-3.606.365.053.737.123 1.135.213 2.952-1.534 7.215-2.172 10.877-1.62 3.662.55 6.34 2.207 6.972 4.256q.612.05 1.328.15c3.45.49 6.162 1.991 7.247 3.983a3.32 3.32 0 0 1 .183 3.031c-.973 2.085-4.316 3.652-8.52 3.984l-8.9 16.753c-1.627 3.585-8.831 5.398-16.295 5.398M66.5 89.57c-4.903 0-9.558 1.746-11.188 3.721a2.8 2.8 0 0 0-.7 2.457c.259 1.126 1.288 2.118 2.968 2.879l.146.063-13.058 16.347c-.876 1.156-1.069 2.351-.574 3.553 1.218 2.935 6.447 5.511 13.01 6.411 9.148 1.328 20.31-.312 22.358-4.824l8.964-16.879h.066c4.153-.332 7.444-1.833 8.383-3.848a3.03 3.03 0 0 0-.176-2.809c-1.049-1.939-3.692-3.383-7.068-3.868-.492-.07-.956-.12-1.381-.152h-.087l-.023-.083c-.554-1.992-3.224-3.626-6.796-4.16-3.632-.548-7.858.086-10.763 1.613l-.04.023h-.047a19 19 0 0 0-3.994-.445" fill="#1e3e13"/><path d="M107.452 88.457c-2.274.77-3.43 1.153-5.787 1.913a7.6 7.6 0 0 1 5.787-1.913m-2.208-.272a8.1 8.1 0 0 1-4.273.75c-2.364-.268-4.844-2.058-6.972-1.746s-2.161.694-2.161.694.584-1.484 2.779-1.427 4.033.952 5.431 1.566 3.536.598 5.196.163" fill="#e9f2da"/><path d="M104.988 88.086s-1.849.415-3.19.046c-1.342-.369-1.328-.863-1.328-.863a10.8 10.8 0 0 0 4.518.817m-11.304-1.7s-1.504-.332-4.3.521c-2.988.91-5.883.359-6.344-.574s1.354-1.328 2.227-.996c.874.332-.358.82-.71.69-.066.664 2.138.73 3.297.452 1.158-.28 4.063-.827 5.83-.093" fill="#e9f2da"/><path d="M92.754 86.582s-2.048.61-1.906 1.736-2.094.637-2.2.017c-.107-.621 1.603-1.67 4.106-1.753m9.708 2.596a10.65 10.65 0 0 1-4.39 1.029c-2.277-.04-4.17-1.537-3.104-2.048s2.079-.027 2.155.332c.076.358-.833.385-.833.385s1.766 1.474 6.172.302" fill="#e9f2da"/><path d="M101.492 89.168s-1.76.378-3.144.083c-1.384-.296-.747-.863-.312-.747s1.697.8 3.456.664m-5.919-1.548s-2.41-.437-3.758.605.332 1.84 1.328 1.746c.995-.093.577-.508.232-.96-.345-.45.322-1.39 2.198-1.39m-10.179-.067s2.094.332 3.376-.132c-.916.843-.368 1.706-.166 1.816-.883-.12-1.305-.747-1.209-1.103-.806.12-1.925-.342-2.001-.58m.494-2.358s.641.611-.664 1.053a6.4 6.4 0 0 0 2.822-.24 4.8 4.8 0 0 1 1.703-.195c-.773-.17-1.962-.29-2.778-.053.013-.293-.445-.535-1.083-.565m15.777 5.173a339 339 0 0 1-6.082 1.952s.219-.664 1.388-1.116c-1.727-.259-2.169-.93-1.993-1.328 1.063.754 4.16 1.166 6.687.492" fill="#e9f2da"/><path d="M90.596 89.211s-.285.767.61 1.564a4.6 4.6 0 0 0 3.298.953c.836-.136.664-.89-.14-.913-.803-.024-.74.381-.74.381-1.391-.385-2.683-1.045-3.028-1.985" fill="#e9f2da"/><path d="M93.837 90.579a.76.76 0 0 1-.734.222c-.316-.046-.495-.222-.402-.391a.77.77 0 0 1 .737-.223c.312.047.491.223.398.392m13.656-2.115a346 346 0 0 1-5.827 1.906s4.817-.292 5.827-1.906m-.532 1.023s-2.124.362-2.742 1.437.774 2.885-.534 3.6c-1.308.713-1.853.54-1.853.54s2.281.472 3.108-.448c.826-.92.361-2.085.116-2.925-.246-.84.65-1.693 1.905-2.204" fill="#e9f2da"/><path d="M106.98 89.636s-1.301.588-1.361 1.298a.89.89 0 0 0 .618.916 2.13 2.13 0 0 1 .743-2.215m-2.337 5.399s-.153.78-2.503 1.481c-2.5.747-2.988 2.138-1.876 2.799 1.112.66 2.427.14 2.351-.369-.077-.508-1.302-.275-1.269-.07-.969-.331-.116-1.211.757-1.537s2.809-1.245 2.54-2.304" fill="#e9f2da"/><path d="M103.992 95.317s-1.696.53-3.174-.057-1.763.518-.953.857 2.972.159 4.127-.8m.511-5.1s-2.29.405-3.193 1.328.332 2.344 1.454 2.151c1.122-.192.9-.823.458-1.012a.93.93 0 0 0-.867.16s-1.218-1.329 2.148-2.627" fill="#e9f2da"/><path d="M104.115 90.632s-1.232.548-1.414 1.232c-.183.684.846.664.873.455s-.342-1.023.541-1.687m-.372 3.061s-.401 1.179-2.393 1.228c-1.992.05-2.364-.976-1.806-1.328s.926 0 1.394.332 2.028.528 2.805-.232m-4.186 4.08a2.46 2.46 0 0 1 1.617-1.265c-1.55-.043-2.504-.664-2.567-.803-.216.398.465.867.996.996a.624.624 0 0 0-.046 1.072m3.496.987s-.581-.562-1.757-.263a2.35 2.35 0 0 1 1.518-.996c.389-.075.741-.283.996-.588a1.59 1.59 0 0 1-1.089 1.142c.405.133.554.435.332.704m-1.388-8.389a340 340 0 0 1-6.082 1.952s2.709.279 3.482-.246c-.332.482.967 1.05 1.594 1.156-1.106-.854-.036-2.012 1.006-2.862" fill="#e9f2da"/><path d="M99.8 94.825a6.4 6.4 0 0 1-2.292-.588c-1.045-.527-1.148-1.205-.767-1.51.382-.306 1.498-.093 1.362.239s-.73.213-.73.213c.291.64 1.045 1.298 2.426 1.646" fill="#e9f2da"/><path d="M99.012 93.042c-.265-.04-.54.043-.61.19-.07.146.089.292.358.332a.62.62 0 0 0 .614-.186c.07-.146-.106-.293-.362-.336M59.836 81.293a92 92 0 0 0 2.43 3.147s.884-2.44-2.43-3.147m2.125.375s.332 1.355 2.596 1.783 6.441-.359 7.809.478.93 1.162.93 1.162 1.328-1.378-.552-1.932c-1.879-.555-4.448-.332-6.334-.203-1.886.13-3.605-.471-4.449-1.288" fill="#e9f2da"/><path d="M62.3 81.668c.74.554 1.63.872 2.553.913 1.54.066 2.125-.332 2.125-.332s-2.75.19-4.678-.581m11.304 1.697a4.67 4.67 0 0 1 2.889 1.603c1.328 1.557 4.385 1.906 5.89 1.265 1.503-.64.48-1.454-.615-1.434-1.096.02-.697.77-.252.763-.757.568-2.63 0-3.244-.534a6.78 6.78 0 0 0-4.668-1.663" fill="#e9f2da"/><path d="M74.129 83.78s.94 1.059-.535 1.942c-1.474.883.947 1.095 1.783.614.837-.481.7-1.803-1.248-2.556m-11.075-.532s.441 1.451 2.35 2.042 5.266-.116 5.01-.827c-.256-.71-1.66-.59-2.155-.331s.216.544.216.544-3.23.737-5.421-1.428" fill="#e9f2da"/><path d="M63.857 83.507a5 5 0 0 0 2.47.927c1.49.139 1.66-.502 1.155-.525s-2.33.176-3.625-.402m6.71.353s2.5.301 2.347 1.523-2.474 1.418-3.19 1.063c-.718-.356.139-.572.965-.847.827-.276 1.411-1.228-.122-1.74m8.413 2.733s-2.112-.306-2.604-1.036c-.265.943-1.752 1.497-2.051 1.534a3.38 3.38 0 0 0 2.324-.575c.508.322 1.978.25 2.33.077m2.437-2.069s-1.258.332-.717 1.05c-1.055-.21-1.69-.522-2.025-.97s-1.152-.611-1.152-.611c.833.073 1.952.302 2.324.72a2.04 2.04 0 0 1 1.57-.189m-19.149-.083a88 88 0 0 0 2.626 3.264 1.09 1.09 0 0 0 .209-1.292c1.726.26 2.895-.169 3.227-.55-1.78.338-4.807-.177-6.062-1.422" fill="#e9f2da"/><path d="M72.725 86.522s-.688.704-2.384 1.115c-1.697.412-3.32.213-3.845-.126-.524-.338.518-.913 1.209-.707.69.206.14.511.14.511 1.61.07 3.462-.12 4.88-.793" fill="#e9f2da"/><path d="M68.422 86.754c-.13.166.02.332.332.385a.95.95 0 0 0 .8-.212c.13-.166-.023-.332-.332-.382a.94.94 0 0 0-.8.21m-8.625-5.469a94 94 0 0 0 2.47 3.154s-3.596-1.553-2.47-3.154m-.801.983s1.302.88.515 1.925c-.787 1.046-4.114 2.152-3.904 3.095s.863.953.863.953-2.434-.24-1.992-1.219c.441-.98 2.211-1.806 3.426-2.427 1.215-.62 1.504-1.564 1.092-2.327" fill="#e9f2da"/><path d="M58.797 82.389a1.21 1.21 0 0 1-.448 1.43 2.87 2.87 0 0 1-1.61.585s1.803-.883 2.058-2.016m-4.588 5.057s-.817.68.262 1.899c1.149 1.295-.13 2.566-1.839 2.802s-2.155-.548-1.477-.946c.677-.399 1.397.132 1.122.292 1.175 0 1.553-.96 1.231-1.464-.322-.505-.803-1.79.701-2.583" fill="#e9f2da"/><path d="M54.398 87.857s.75.896 2.656.82.82.906-.255.962c-1.076.057-2.63-.667-2.4-1.782m5.726-4.317s1.391.957 1.02 1.96c-.372 1.002-3.085 1.832-3.782 1.36-.697-.47.256-.92.843-.952.588-.034.518.368.518.368s2.593-.75 1.401-2.736" fill="#e9f2da"/><path d="M59.966 83.972a1.25 1.25 0 0 1-.332 1.398c-.664.607-1.514.332-1.262.133.252-.2 1.517-.747 1.594-1.53m-3.406 2.622s-1.093 1.076.477 1.66 3.115-.15 3.085-.591c-.03-.442-.764-.252-1.56-.1-.797.153-2.281-.136-2.003-.97m-1.49 4.486s.823-.923.199-1.477a6.4 6.4 0 0 0 3.074.043c-.305.385-1.427.581-2.025.544.123.352-.823.85-1.248.89m-4.05-.15s1.148-.298 1.753.266c.351-.494.331-.886-.03-1.238a.59.59 0 0 1-.097-.75c-.401.332-.787.876-.488 1.231-.511.004-.996.21-1.138.492m11.248-6.491a88 88 0 0 0 2.626 3.264s-2.55-.515-2.557-1.152c-.305.484-2.051.59-2.696.508 1.933-.395 2.444-1.637 2.627-2.62" fill="#e9f2da"/><path d="M58.432 88.6c.847.19 1.72.239 2.583.146 1.494-.146 2.394-.664 2.45-1.029s-1.116-.485-1.401-.176c-.286.309.332.375.332.375a8.8 8.8 0 0 1-3.964.684" fill="#e9f2da"/><path d="M61.214 87.355c.269.04.392.186.276.332a.85.85 0 0 1-.694.176c-.27-.043-.395-.186-.28-.332a.86.86 0 0 1 .698-.176m26.7 46.155a336 336 0 0 1-5.103-3.549s.338 2.626 5.103 3.549m-2.998-.508s-1.415-1.604-4.44-2.062c-3.177-.481-7.745.113-10.368-.863-2.131-.794-1.716-1.265-1.716-1.265s-1.182 1.394 1.544 2.082 6.039.561 8.416.514a13.55 13.55 0 0 1 6.563 1.594" fill="#e9f2da"/><path d="M84.484 132.995a11.1 11.1 0 0 0-3.878-1.112c-2.035-.139-2.57.282-2.57.282s3.437-.106 6.448.83m-15.76-2.374a10.04 10.04 0 0 1-4.456-1.839c-2.324-1.703-6.307-2.194-8.163-1.607-1.856.588-.3 1.481 1.175 1.517 1.474.037.73-.763.14-.776.866-.552 3.485.116 4.471.717s3.785 1.998 6.833 1.988" fill="#e9f2da"/><path d="M67.848 130.157s-1.66-1.169-.07-2.036c1.59-.866-1.597-1.195-2.52-.727s-.309 1.863 2.59 2.763m14.67 1.069a8.77 8.77 0 0 0-4.11-2.308c-2.702-.71-6.64-.089-5.996.681s2.444.704 2.939.441c.494-.262-.542-.594-.542-.594s3.616-.671 7.71 1.78" fill="#e9f2da"/><path d="M81.34 130.91a11.4 11.4 0 0 0-3.652-1.102c-1.969-.209-1.863.471-1.209.518.654.046 2.869-.096 4.86.584m-8.844-.674s-3.44-.428-3.708-1.726 2.6-1.398 3.652-.996.07.604-.873.863-1.315 1.242.93 1.859m-11.996-3.27s2.829.412 3.719 1.202c.03-.976 1.773-1.494 2.141-1.517-1.149-.186-2.443.182-2.799.498-.767-.356-2.65-.329-3.06-.183m-2.67 2.032s1.59-.272.664-1.053c1.46.269 2.394.628 2.988 1.113.594.484 1.76.72 1.76.72-1.146-.123-2.73-.418-3.37-.876-.382.242-1.248.282-2.042.096m24.979.963a328 328 0 0 1-4.916-3.609s-.495.614.332 1.374c-2.268-.332-3.54.07-3.785.468 2.108-.292 6.079.366 8.37 1.767" fill="#e9f2da"/><path d="M68.601 127.315s.63-.714 2.596-1.083c1.966-.368 4.02-.109 4.814.269.794.379-.242.953-1.192.711-.95-.243-.388-.548-.388-.548-2.028-.133-4.273-.003-5.83.651" fill="#e9f2da"/><path d="M73.946 127.238c.09-.169-.169-.358-.58-.421-.412-.063-.824.026-.917.196-.093.169.166.355.581.418s.823-.023.916-.193m14.034 6.282a368 368 0 0 1-5.16-3.559c-.01 0 5.469 1.839 5.16 3.559m.332-1.056s-2.234-1.019-1.909-2.138 3.652-2.218 2.862-3.25-1.557-1.056-1.557-1.056 2.971.332 3.06 1.378c.09 1.045-1.52 1.912-2.622 2.546s-.883 1.663.166 2.52" fill="#e9f2da"/><path d="M88.481 132.344s-1.012-.936-.398-1.56a2.37 2.37 0 0 1 1.61-.584s-1.67.903-1.212 2.144m2.337-5.395s.508-.727-1.397-2.071c-2.032-1.428-1.166-2.762.607-2.988s2.656.627 2.128 1.042-1.623-.162-1.4-.332c-1.309-.026-1.249.996-.608 1.561.64.564 1.952 1.958.67 2.788" fill="#e9f2da"/><path d="M90.35 126.488a6.4 6.4 0 0 0-3.582-.956c-2.208.03-1.417-.996-.206-1.036s3.41.793 3.788 1.992m-4.306 4.535s-2.324-1.099-2.44-2.171c-.116-1.073 2.716-1.889 3.818-1.358s.232.996-.458 1.012-.843-.418-.843-.418-2.829.724-.077 2.935" fill="#e9f2da"/><path d="M85.988 130.558s-.913-.873-.442-1.514c.472-.64 1.66-.302 1.464-.099s-1.43.757-1.022 1.613m2.552-2.742s.665-1.142-1.513-1.813c-2.178-.67-3.609.077-3.343.551.265.475 1.046.296 1.915.153.87-.143 2.776.203 2.942 1.109m-.707-4.821a1.205 1.205 0 0 0 .528 1.584 7.9 7.9 0 0 0-3.576-.116c.17-.409 1.365-.591 2.072-.541-.299-.379.518-.893.976-.927m4.621.233a2.87 2.87 0 0 1-2.098-.316c-.136.525.096.95.7 1.328.605.379.532.817.532.817.259-.368.392-.94-.14-1.328.575.017 1.003-.199 1.006-.501m-9.645 6.733a328 328 0 0 1-4.916-3.609s3.343.634 3.678 1.328c.126-.511 2.188-.571 3.005-.462-2.115.362-2.118 1.68-1.766 2.743" fill="#e9f2da"/><path d="M85.218 125.585a11.5 11.5 0 0 0-3.128-.229c-1.706.116-2.553.664-2.457 1.026s1.587.557 1.783.235-.594-.415-.594-.415a9.36 9.36 0 0 1 4.396-.617" fill="#e9f2da"/><path d="M82.525 126.843c-.332-.053-.568-.212-.495-.355s.406-.219.747-.166c.342.053.565.209.495.355s-.405.216-.747.166m-61.001-3.323c3.426-.598 5.116-.9 8.459-1.507 0 0-3.446 2.055-8.46 1.507m3.068.405s3.091-.926 6.12-.472c3.18.475 6.2 2.212 9.53 2.129 2.697-.067 2.932-.578 2.932-.578s-.714 1.464-3.771 1.278-5.62-1.192-7.513-1.879-4.834-.797-7.298-.478" fill="#e9f2da"/><path d="M24.957 124.038s2.675-.292 4.511.152c1.836.445 1.767.93 1.767.93a20.3 20.3 0 0 0-6.279-1.082m15.764 2.37s2.154.432 5.863-.285c3.947-.764 7.809-.07 8.632.916s-1.544 1.295-2.796.923.332-.827.827-.664c-.043-.687-2.988-.857-4.525-.634s-5.521.584-8.001-.256" fill="#e9f2da"/><path d="M41.998 126.265s2.752-.504 2.507-1.66c-.246-1.155 2.745-.541 2.938.097.192.637-1.992 1.62-5.445 1.563m-13.303-3.137c1.999-.56 4.07-.818 6.145-.763 3.068.156 5.551 1.743 4.09 2.194-1.46.452-2.852-.09-2.938-.442-.086-.351 1.159-.332 1.159-.332s-2.152-1.543-8.456-.657" fill="#e9f2da"/><path d="M30.036 123.191s2.47-.269 4.316.096c1.846.366.96.897.365.757-.594-.139-2.227-.876-4.68-.853m8.053 1.869s3.32.578 5.12-.398-.445-1.856-1.79-1.813-.78.475-.332.943-.411 1.368-2.998 1.268m13.762.608s-2.809-.438-4.492-.037c1.152-.806.352-1.706.076-1.826 1.169.16 1.783.817 1.69 1.172 1.06-.083 2.59.442 2.726.691m-.259 2.39s-.973-.664.717-1.045a11.2 11.2 0 0 0-3.788.092 8.4 8.4 0 0 1-2.324.11c1.085.213 2.739.405 3.814.206.047.299.704.571 1.58.637m-21.609-6.045c3.393-.638 5.066-.96 8.373-1.611 0 0-.332.638-1.936 1.033 2.265.332 2.81 1.026 2.533 1.418-1.367-.814-5.421-1.345-8.97-.84" fill="#e9f2da"/><path d="M44.82 123.732s.332-.757-.82-1.597-3.16-1.188-4.266-1.095-.95.85.12.91c1.068.059.975-.332.975-.332 1.806.434 3.486 1.155 3.991 2.114" fill="#e9f2da"/><path d="M40.52 122.208c.13-.166.568-.245.997-.185.428.059.644.245.518.411-.127.166-.568.246-.996.183s-.648-.246-.518-.409M21.467 123.5c3.45-.594 5.15-.896 8.516-1.501 0 .014-6.703.017-8.516 1.501m.993-.94s3.058-.225 4.137-1.228-.332-2.819 1.577-3.446 2.546-.435 2.546-.435-2.832-.551-4.16.289-1.056 1.992-.923 2.802-1.285 1.6-3.177 2.018" fill="#e9f2da"/><path d="M22.467 122.411s1.955-.488 2.207-1.169c.253-.68-.614-.919-.614-.919s.276 1.185-1.593 2.088m4.591-5.056s.458-.734 3.652-1.312c3.38-.614 4.283-1.942 3.101-2.613-1.182-.67-2.935-.219-2.988.273-.053.491 1.527.308 1.547.109 1.106.332-.19 1.166-1.378 1.444-1.188.279-3.987 1.069-3.934 2.099" fill="#e9f2da"/><path d="M27.988 117.112s2.323-.435 4.087.196c1.762.631 2.36-.428 1.41-.79s-3.728-.286-5.497.594m-1.936 4.884s3.237-.259 4.618-1.109.05-2.287-1.494-2.158c-1.544.13-1.388.754-.843.956.4.104.822.064 1.195-.113 0 0 1.454 1.362-3.476 2.424" fill="#e9f2da"/><path d="M26.673 121.634s1.793-.461 2.181-1.115-.996-.704-1.076-.485.246 1.009-1.105 1.6m1.215-2.951s.84-1.113 3.423-1.073 2.862 1.053 2.072 1.371-1.212-.046-1.753-.401c-.542-.356-2.527-.588-3.742.103m6.378-3.749a3.9 3.9 0 0 1-2.344 1.152c1.952.107 3.014.754 3.07.884.353-.379-.404-.857-1.045-.996.7-.243.65-.887.319-1.04m-4.054-1.062s.561.561 2.101.332a4.13 4.13 0 0 1-2.187.903 3.2 3.2 0 0 0-1.418.521 2.6 2.6 0 0 1 1.713-1.049c-.491-.176-.58-.468-.209-.707m-.229 8.141c3.393-.638 5.066-.96 8.373-1.611 0 0-3.5-.395-4.605.077.515-.455-1.099-1.066-1.902-1.202 1.285.88-.309 1.962-1.866 2.736" fill="#e9f2da"/><path d="M33.286 117.77a9.7 9.7 0 0 1 2.836.664c1.255.561 1.308 1.228.77 1.51s-1.969.023-1.74-.295c.23-.319.996-.176.996-.176-.292-.621-1.155-1.305-2.862-1.703" fill="#e9f2da"/><path d="M33.974 119.536a1.06 1.06 0 0 0 .83-.153c.116-.136-.067-.289-.412-.332a1.06 1.06 0 0 0-.83.156c-.116.126.066.279.412.329m4.846-1.086s-2.154-1.148-1.284-2.423 5.206-2.557 4.731-3.725-1.328-1.189-1.328-1.189 3.287.332 2.928 1.547c-.358 1.215-2.59 2.188-4.143 2.918-1.554.731-1.746 1.899-.903 2.872" fill="#e9f2da"/><path d="M39.073 118.307s-.767-1.059.216-1.776a3.77 3.77 0 0 1 2.118-.664s-2.327 1.029-2.334 2.44m5.047-6.165s.903-.833-.7-2.347c-1.707-1.61-.11-3.137 2.021-3.41 2.131-.272 2.776.691 1.992 1.169s-1.79-.173-1.46-.365c-1.488-.02-1.88 1.155-1.389 1.779.492.625 1.378 2.218-.464 3.174" fill="#e9f2da"/><path d="M43.777 111.628s-1.148-1.116-3.705-1.063c-2.556.053-1.188-1.122.226-1.175s3.562.866 3.48 2.238m-6.962 5.192s-2.228-1.238-1.876-2.457 3.984-2.171 5.023-1.573c1.04.597-.17 1.132-.976 1.155-.807.023-.79-.468-.79-.468s-3.61.833-1.381 3.343" fill="#e9f2da"/><path d="M36.938 116.289s-.664-.996.156-1.72 2.052-.358 1.74-.126-1.982.873-1.896 1.846m4.177-3.151s1.255-1.305-.946-2.052-4.2.113-4.11.664c.09.552 1.079.332 2.148.16s3.114.206 2.908 1.228m1.318-5.478s-.996 1.112-.1 1.803a9.15 9.15 0 0 0-4.063-.106c.375-.465 1.836-.684 2.623-.631-.173-.428.996-1.019 1.54-1.066m5.199.236s-1.43.355-2.267-.332c-.392.601-.313 1.079.212 1.517a.74.74 0 0 1 .256.927c.458-.422.86-1.073.421-1.514.654-.014 1.239-.266 1.378-.598" fill="#e9f2da"/><path d="M37.878 110.648a12.5 12.5 0 0 0-3.622.272c-1.926.445-2.779 1.242-2.576 1.69.202.449 1.952.402 2.098-.026s-.78-.402-.78-.402a10 10 0 0 1 4.88-1.534" fill="#e9f2da"/><path d="M34.379 112.318c-.375-.056-.561-.236-.415-.402a1.22 1.22 0 0 1 .943-.192c.375.056.56.232.415.398a1.2 1.2 0 0 1-.943.196m.441 1.524s.903-1.494 4.197-1.437c-.638-.243-2.656-.246-3.622.066-1.418.448-.82 1.112-.575 1.371m3.045 6.192s.554-1.295-.396-2.142a2.42 2.42 0 0 0-2.523-.468c-.365.216 1.016.356 1.823.847a2.14 2.14 0 0 1 1.096 1.763m2.108-2.258s-.083 2.092 2.735 3.427c-2.227-.359-3.592-.804-3.89-1.408-.3-.604.338-1.471 1.155-2.019m39.893 6.849s3.15-.348 3.984-1.63c.833-1.281-1.182-3.519.618-4.346 1.799-.826 2.523-.607 2.523-.607s-3.101-.621-4.26.465c-1.159 1.085-.521 2.496-.133 3.522.389 1.026-.866 2.032-2.732 2.596" fill="#e9f2da"/><path d="M79.83 124.439s1.908-.664 1.965-1.51c.056-.847-.92-1.136-.92-1.136s.654 1.491-1.046 2.646m3.304-6.427s.265-.93 3.403-1.73c3.336-.85 3.87-2.536 2.453-3.343s-3.104-.196-3.031.415 1.66.349 1.64.1c1.238.391.143 1.46-1.013 1.836-1.155.375-3.81 1.437-3.452 2.722" fill="#e9f2da"/><path d="M84.03 117.683s2.29-.597 4.315.146c2.025.744 2.324-.594 1.228-1.022s-3.957-.279-5.544.876m-.554 6.149s3.32-.402 4.495-1.497-.644-2.866-2.215-2.656-1.228.972-.594 1.215a1.41 1.41 0 0 0 1.212-.17s1.939 1.67-2.898 3.108" fill="#e9f2da"/><path d="M84.013 123.37s1.74-.62 1.945-1.447-1.252-.857-1.275-.581c-.023.275.568 1.255-.67 2.028m.378-3.721s.545-1.411 3.25-1.421 3.3 1.245 2.573 1.66-1.278-.027-1.948-.458c-.671-.432-2.81-.674-3.875.219m5.525-4.844a2.97 2.97 0 0 1-2.092 1.504c2.062.083 3.36.863 3.456 1.022.252-.481-.68-1.059-1.391-1.231a.73.73 0 0 0 .31-1.021.7.7 0 0 0-.283-.274m-4.532-1.238s.743.683 2.267.332c-.401.597-1.045.969-1.992 1.185-.505.08-.97.321-1.328.687a2.04 2.04 0 0 1 1.478-1.351c-.548-.166-.727-.531-.425-.853" fill="#e9f2da"/><path d="M90.045 118.497c.955.21 1.853.625 2.633 1.215 1.046.89.78 1.776.076 2.088s-2.085-.206-1.69-.594c.395-.389 1.126-.116 1.126-.116.006-.88-.558-1.87-2.145-2.593" fill="#e9f2da"/><path d="M90.895 120.821c.375.056.743-.04.82-.213.076-.172-.163-.362-.535-.418-.372-.057-.743.04-.82.212-.076.173.16.362.535.419m-2.198 1.125s1.06-1.467-1.703-2.324c.813-.023 2.457.525 2.885 1.046.62.754-.667 1.135-1.182 1.278m-9.957 4.24a6.26 6.26 0 0 1 2.902-1.66c1.796-.432 2.6.026 2.633.305s-1.262.017-2.513.196a7.7 7.7 0 0 0-3.022 1.159m.993-2.427a13.8 13.8 0 0 1-6.36 2.065c2.257.332 3.91.332 4.88-.086s1.493-1.308 1.48-1.979" fill="#e9f2da"/><path d="M57.808 93.032v-.345l9.143-12.124 34.518 4.83v.345l-7.546 13.885z" fill="#110704"/><path d="m57.808 92.687 9.143-12.47 34.518 5.176-7.546 13.884z" fill="#472013"/><path d="M58.226 92.418s9.36-1.43 15.398 2.988c1.557-1.275 2.61-.415 3.32.604 0 0 7.251-2.27 16.67 2.988 1.726-3.193 7.569-13.595 7.569-13.595l-.564-2.204c-2.563-.787-10.6-2.826-16.819-.469-.94-.823-2.29-1.019-3.081-.474-1.949-1.491-8.861-3.712-13.768-2.052-3.26 4.445-7.453 8.805-8.725 10.624z" fill="#ecb67b"/><path d="M100.619 83.212a36.1 36.1 0 0 0-10.438-1.564l3.443 17.35c1.736-3.207 7.566-13.582 7.566-13.582z" fill="#efae6f"/><path d="M58.226 90.841s8.356-1.859 17.181 3.48c4.067-.927 10.156-1.7 17.679 1.958 1.135-2.041 7.533-13.067 7.533-13.067l-1.119-.468-29.073 2.35-11.092 4.124z" fill="#e2a05d"/><path d="M82.608 81.668c-2.191-2.098-10.75-4.867-15.657-3.207-4.073 5.554-8.3 11.62-8.3 11.62s10.624-1.023 16.746 4.226c0 0 8.187-3.907 17.596 1.365 1.73-3.194 7.43-12.908 7.43-12.908s-10.391-3.905-17.815-1.096" fill="#ffc892"/><path d="M82.608 81.668c-2.191-2.098-10.75-4.867-15.657-3.207-4.073 5.554-8.3 11.62-8.3 11.62s10.624-1.023 16.746 4.226c0 0 7.686-5.272 17.101 0 1.727-3.194 7.075-12.15 7.075-12.15s-9.541-3.298-16.965-.489" fill="#ffdaa4"/><path d="M82.608 81.668c-2.19-2.098-10.75-4.867-15.657-3.207-4.073 5.554-8.794 11.733-8.794 11.733s11.121-1.129 17.264 4.12z" fill="#ffdaa4"/><path d="M82.608 81.668c-2.19-2.098-10.76-5.192-15.667-3.532-4.073 5.557-8.064 10.441-8.064 10.441s10.727-.332 16.53 5.737z" fill="#ffe3bd"/><path d="M82.877 81.595s-.265-.242-.74.285c-.475.528-5.624 9.748-6.272 10.698a7.3 7.3 0 0 0-1.205 3.698 3.7 3.7 0 0 1-.664 2.108l.78-.275.273.637c.385-.544.6-1.19.617-1.856a9.2 9.2 0 0 1 .86-3.861c.737-1.733 6.351-11.434 6.351-11.434" fill="#aecc3e"/><path d="M58.226 91.422a21.3 21.3 0 0 1 7.68 0 29.6 29.6 0 0 1 8.86 3.383c-1.268-.976-9.216-5.375-16.54-3.383" fill="#e2a05d"/><path d="M58.226 92.026s3.32-.793 8.27.163 7.49 2.955 7.49 2.955-2.128-2.188-7.49-3.118-8.27 0-8.27 0m17.762 2.799s4.924-1.139 9.406-.226a33.7 33.7 0 0 1 7.898 2.673l7.324-12.885-7.407 12.507s-8.755-4.771-17.221-2.069" fill="#e2a05d"/><path d="M76.818 95.346s7.42-2.158 16.623 2.766c2.089-3.652 7.281-12.832 7.281-12.832l-7.347 12.493s-8.463-4.94-16.557-2.427m-1.723-2.579-.113-.093c-6.168-5.123-14.1-4.698-14.18-4.698l-.265.017 6.909-9.343h.05c6.354-1.135 13.685 2.955 13.758 2.988l.106.063-.06.107c-.036.066-3.778 6.759-6.129 10.836zm-13.801-5.05c1.856 0 8.416.332 13.735 4.671a807 807 0 0 0 5.976-10.594c-.927-.501-7.596-3.934-13.433-2.915l-6.54 8.841z" fill="#e2a05d"/><path d="m77.067 92.793.246-.418c.03-.05 3.04-5.2 5.816-10.086l.024-.04.043-.017c6.222-2.274 14.422.15 14.505.173l.146.043-.073.136c-.033.06-3.32 6.023-5.644 10.057l-.056.1-.103-.05c-8.214-3.782-14.422-.183-14.486-.147zm7.304-2.078a18.3 18.3 0 0 1 7.593 1.703c2.125-3.688 5.01-8.907 5.514-9.817-1.135-.312-8.479-2.204-14.156-.15a1153 1153 0 0 1-5.58 9.678 15.7 15.7 0 0 1 6.64-1.414z" fill="#e2a05d"/></svg>
