<svg width="92" height="84" viewBox="0 0 92 84" fill="none" xmlns="http://www.w3.org/2000/svg">
<path d="M90.2272 60.9585C90.2272 80.4369 71.9008 82.9617 47.6032 83.4225C19.0048 83.9601 0.812821 83.6817 0.496021 62.4081C0.361621 53.2497 5.44002 45.5697 9.49122 41.3073C13.312 37.3041 10.5856 29.1345 11.4112 21.8865C11.456 21.4833 11.5104 21.0801 11.5744 20.6769C14.512 1.50567 29.8048 1.25607 48.5824 0.603271C69.3376 -0.116729 82.0192 7.24647 82.6528 21.0321C82.8928 26.3793 80.656 32.2161 80.7904 35.5377C80.9824 39.9729 83.824 43.2081 86.0128 47.0289C88.6912 51.6849 90.2272 55.4481 90.2272 60.9585Z" fill="#728363"/>
<path d="M1.89771 25.0064C1.89771 23.2496 3.2801 21.8288 4.97931 21.8288C6.68811 21.8288 8.07051 23.2496 8.07051 25.0064C8.07051 26.7632 6.68811 28.184 4.97931 28.184C3.2801 28.184 1.89771 26.7632 1.89771 25.0064Z" fill="#728363"/>
<path d="M3.29932 40.0208C3.29932 39.0704 4.05772 38.2928 4.97932 38.2928C5.91052 38.2928 6.66892 39.0704 6.66892 40.0208C6.66892 40.9808 5.91052 41.7584 4.97932 41.7584C4.05772 41.7584 3.29932 40.9808 3.29932 40.0208Z" fill="#728363"/>
<path d="M6.31372 33.1856C6.31372 32.1872 7.10092 31.3808 8.07052 31.3808C9.03052 31.3808 9.81772 32.1872 9.81772 33.1856C9.81772 34.184 9.03052 34.9904 8.07052 34.9904C7.10092 34.9904 6.31372 34.184 6.31372 33.1856Z" fill="#728363"/>
<path d="M83.3538 34.5392C83.3538 32.4656 84.9858 30.7856 87.0018 30.7856C89.0082 30.7856 90.6402 32.4656 90.6402 34.5392C90.6402 36.6128 89.0082 38.2928 87.0018 38.2928C84.9858 38.2928 83.3538 36.6128 83.3538 34.5392Z" fill="#728363"/>
<path d="M87.5586 43.6304C87.5586 42.5168 88.4418 41.6144 89.5266 41.6144C90.6018 41.6144 91.485 42.5168 91.485 43.6304C91.485 44.7536 90.6018 45.656 89.5266 45.656C88.4418 45.656 87.5586 44.7536 87.5586 43.6304Z" fill="#728363"/>
<mask id="mask0_8077_51076" style="mask-type:luminance" maskUnits="userSpaceOnUse" x="0" y="0" width="91" height="84">
<path d="M90.2225 60.9632C90.2225 80.4339 71.9019 82.9578 47.6033 83.4176C19.003 83.959 0.811953 83.6864 0.497073 62.407C0.360753 53.2525 5.43627 45.5658 9.49611 41.3043C13.3092 37.3021 10.5876 29.1334 11.4104 21.8874C11.4564 21.4835 11.5105 21.079 11.5726 20.6739C14.5169 1.50368 29.8088 1.25504 48.5844 0.601283C69.3339 -0.120637 82.0212 7.24352 82.6519 21.0349C82.8967 26.3792 80.6532 32.2189 80.7934 35.5405C80.9806 39.9747 83.8231 43.207 86.0177 47.0278C88.6903 51.6819 90.2225 55.447 90.2225 60.9632Z" fill="white"/>
</mask>
<g mask="url(#mask0_8077_51076)">
<path d="M98.2815 50.0624H-5.17773V-3.65921H98.2815V50.0624Z" fill="#E9F2DA"/>
<path d="M75.5678 28.76H68.9822V26.5904H75.5678V28.76Z" fill="#728363"/>
<path d="M72.4189 31.9376H65.8237V29.768H72.4189V31.9376Z" fill="#728363"/>
<path d="M25.4558 18.2192H18.8606V16.0496H25.4558V18.2192Z" fill="#728363"/>
<path d="M22.2975 21.3968H15.7119V19.2272H22.2975V21.3968Z" fill="#728363"/>
<path d="M25.0336 41.1056H18.8704V38.9456H25.0336V41.1056Z" fill="#728363"/>
<path d="M22.0768 44.2832H15.9136V42.1136H22.0768V44.2832Z" fill="#728363"/>
<path d="M29.0944 44.2832H22.9312V42.1136H29.0944V44.2832Z" fill="#728363"/>
<path d="M64.1439 52.7696H61.7631H5.16152H2.79032H-2.55688V48.5456H94.8159V52.7696H64.1439Z" fill="#425E31"/>
<path d="M3.7696 50.7632L2.3872 51.7616L1.0144 50.7632L2.3872 49.7648L3.7696 50.7632Z" fill="#728363"/>
<path d="M7.12947 50.7632L5.75667 51.7616L4.37427 50.7632L5.75667 49.7648L7.12947 50.7632Z" fill="#728363"/>
<path d="M10.4991 50.7632L9.1167 51.7616L7.7439 50.7632L9.1167 49.7648L10.4991 50.7632Z" fill="#728363"/>
<path d="M13.8592 50.7632L12.4864 51.7616L11.104 50.7632L12.4864 49.7648L13.8592 50.7632Z" fill="#728363"/>
<path d="M17.2288 50.7632L15.8464 51.7616L14.4736 50.7632L15.8464 49.7648L17.2288 50.7632Z" fill="#728363"/>
<path d="M20.5887 50.7632L19.2159 51.7616L17.8335 50.7632L19.2159 49.7648L20.5887 50.7632Z" fill="#728363"/>
<path d="M23.9583 50.7632L22.5759 51.7616L21.2031 50.7632L22.5759 49.7648L23.9583 50.7632Z" fill="#728363"/>
<path d="M27.3184 50.7632L25.9456 51.7616L24.5632 50.7632L25.9456 49.7648L27.3184 50.7632Z" fill="#728363"/>
<path d="M30.6878 50.7632L29.3054 51.7616L27.9326 50.7632L29.3054 49.7648L30.6878 50.7632Z" fill="#728363"/>
<path d="M34.0479 50.7632L32.6751 51.7616L31.2927 50.7632L32.6751 49.7648L34.0479 50.7632Z" fill="#728363"/>
<path d="M37.4176 50.7632L36.0352 51.7616L34.6624 50.7632L36.0352 49.7648L37.4176 50.7632Z" fill="#728363"/>
<path d="M40.7777 50.7632L39.4049 51.7616L38.0225 50.7632L39.4049 49.7648L40.7777 50.7632Z" fill="#728363"/>
<path d="M44.147 50.7632L42.7646 51.7616L41.3918 50.7632L42.7646 49.7648L44.147 50.7632Z" fill="#728363"/>
<path d="M47.5072 50.7632L46.1344 51.7616L44.752 50.7632L46.1344 49.7648L47.5072 50.7632Z" fill="#728363"/>
<path d="M50.8768 50.7632L49.4944 51.7616L48.1216 50.7632L49.4944 49.7648L50.8768 50.7632Z" fill="#728363"/>
<path d="M54.2366 50.7632L52.8638 51.7616L51.4814 50.7632L52.8638 49.7648L54.2366 50.7632Z" fill="#728363"/>
<path d="M57.6063 50.7632L56.2239 51.7616L54.8511 50.7632L56.2239 49.7648L57.6063 50.7632Z" fill="#728363"/>
<path d="M60.9664 50.7632L59.5936 51.7616L58.2112 50.7632L59.5936 49.7648L60.9664 50.7632Z" fill="#728363"/>
<path d="M64.336 50.7632L62.9536 51.7616L61.5808 50.7632L62.9536 49.7648L64.336 50.7632Z" fill="#728363"/>
<path d="M67.6959 50.7632L66.3231 51.7616L64.9407 50.7632L66.3231 49.7648L67.6959 50.7632Z" fill="#728363"/>
<path d="M71.0655 50.7632L69.6831 51.7616L68.3103 50.7632L69.6831 49.7648L71.0655 50.7632Z" fill="#728363"/>
<path d="M74.4256 50.7632L73.0528 51.7616L71.6704 50.7632L73.0528 49.7648L74.4256 50.7632Z" fill="#728363"/>
<path d="M77.795 50.7632L76.4126 51.7616L75.0398 50.7632L76.4126 49.7648L77.795 50.7632Z" fill="#728363"/>
<path d="M81.1551 50.7632L79.7823 51.7616L78.3999 50.7632L79.7823 49.7648L81.1551 50.7632Z" fill="#728363"/>
<path d="M84.5247 50.7632L83.1423 51.7616L81.7695 50.7632L83.1423 49.7648L84.5247 50.7632Z" fill="#728363"/>
<path d="M87.8848 50.7632L86.512 51.7616L85.1296 50.7632L86.512 49.7648L87.8848 50.7632Z" fill="#728363"/>
<path d="M91.2545 50.7632L89.8721 51.7616L88.4993 50.7632L89.8721 49.7648L91.2545 50.7632Z" fill="#728363"/>
<path d="M61.0624 18.1136V52.7696H30.9856V18.1136C30.9856 16.7408 32.0992 15.6176 33.4528 15.6176H36.6976C36.8992 15.6176 37.0816 15.5216 37.2064 15.3584C37.3216 15.1952 37.36 14.9936 37.312 14.792C36.9184 13.3712 37.6 11.8832 38.9248 11.2592L41.92 9.84803C43.504 9.09923 44.896 8.01443 46.0096 6.66083C46.9792 7.92803 48.2368 8.95523 49.6768 9.62723L53.1232 11.2592C54.448 11.8832 55.1296 13.3712 54.7456 14.792C54.688 14.9936 54.7264 15.1952 54.8512 15.3584C54.9664 15.5216 55.1488 15.6176 55.3504 15.6176H58.5952C59.9584 15.6176 61.0624 16.7408 61.0624 18.1136Z" fill="#425E31"/>
<path d="M30.9856 52.7696H29.728V18.1136C29.728 16.0208 31.3984 14.3216 33.4528 14.3216H35.9488C35.8144 12.5456 36.7648 10.8464 38.4064 10.0688L41.4016 8.66718C43.0432 7.88958 44.464 6.69918 45.52 5.20158C45.6352 5.03838 45.8272 4.94238 46.0288 4.94238C46.2304 4.94238 46.4128 5.03838 46.5376 5.20158L46.8256 5.62398C47.6896 6.83358 48.8512 7.81278 50.1952 8.44638L53.6512 10.0688C55.2928 10.8464 56.2432 12.5456 56.0992 14.3216H58.5952C60.6496 14.3216 62.32 16.0208 62.32 18.1136V52.7696H61.0624V18.1136C61.0624 16.7408 59.9584 15.6176 58.5952 15.6176H55.3504C55.1488 15.6176 54.9664 15.5216 54.8512 15.3584C54.7264 15.1952 54.688 14.9936 54.7456 14.792C55.1296 13.3712 54.448 11.8832 53.1232 11.2592L49.6768 9.62718C48.2368 8.95518 46.9792 7.92798 46.0096 6.66078C44.896 8.01438 43.504 9.09918 41.92 9.84798L38.9248 11.2592C37.6 11.8832 36.9184 13.3712 37.312 14.792C37.36 14.9936 37.3216 15.1952 37.2064 15.3584C37.0816 15.5216 36.8992 15.6176 36.6976 15.6176H33.4528C32.0992 15.6176 30.9856 16.7408 30.9856 18.1136V52.7696Z" fill="#728363"/>
<path d="M61.0624 52.7696H30.9856V26.984C35.344 25.0928 40.5472 23.9984 46.1344 23.9984C51.6256 23.9984 56.752 25.0544 61.0624 26.888V52.7696Z" fill="#728363"/>
<path d="M47.0176 30.3344C46.1632 30.5648 46.2496 30.4688 46.0096 31.3328C45.7888 30.4688 45.8848 30.5648 45.04 30.3344C45.8848 30.0944 45.7888 30.1712 46.0096 29.2976C46.2496 30.1808 46.1632 30.0944 47.0176 30.3344Z" fill="#F3D769"/>
<path d="M39.5489 21.8576C38.7041 22.0784 38.7809 21.9824 38.5409 22.8464C38.3201 21.9824 38.4161 22.0784 37.5713 21.8576C38.4161 21.608 38.3201 21.6944 38.5409 20.8208C38.7809 21.6944 38.6945 21.608 39.5489 21.8576Z" fill="#F3D769"/>
<path d="M53.5073 20.216C52.7393 20.4176 52.8161 20.3312 52.5953 21.1184C52.4033 20.3312 52.4801 20.4176 51.7217 20.216C52.4897 19.9952 52.4033 20.072 52.5953 19.2752C52.8161 20.072 52.7393 19.9952 53.5073 20.216Z" fill="#F3D769"/>
<path d="M40.5376 17.7104C40.5376 17.4704 40.7296 17.2784 40.96 17.2784C41.1904 17.2784 41.3824 17.4704 41.3824 17.7104C41.3824 17.9504 41.1904 18.1424 40.96 18.1424C40.7296 18.1424 40.5376 17.9504 40.5376 17.7104Z" fill="white"/>
<path d="M40.6433 27.5696C40.6433 27.3008 40.8545 27.0896 41.1041 27.0896C41.3633 27.0896 41.5649 27.3008 41.5649 27.5696C41.5649 27.8288 41.3633 28.04 41.1041 28.04C40.8545 28.04 40.6433 27.8288 40.6433 27.5696Z" fill="white"/>
<path d="M51.04 25.8704C51.04 25.6784 51.1936 25.5152 51.3856 25.5152C51.5776 25.5152 51.7312 25.6784 51.7312 25.8704C51.7312 26.072 51.5776 26.2256 51.3856 26.2256C51.1936 26.2256 51.04 26.072 51.04 25.8704Z" fill="white"/>
<path d="M49.3312 18.6704C49.3312 20.8688 47.5936 22.6544 45.4624 22.6544C44.1664 22.6544 43.0336 22.0016 42.3232 21.0032C42.736 21.2048 43.1968 21.3104 43.6768 21.3104C45.4624 21.3104 46.912 19.8128 46.912 17.9792C46.912 16.4624 45.9424 15.1856 44.5984 14.7824C44.8768 14.7152 45.1648 14.6768 45.4624 14.6768C47.5936 14.6768 49.3312 16.4624 49.3312 18.6704Z" fill="#FFCC00"/>
</g>
<path d="M85.1393 70.856H7.3313L15.5969 57.752H77.5073L85.1393 70.856Z" fill="#728363"/>
<path d="M19.7154 69.3392L20.2626 68.168C16.7298 67.7552 15.0018 65.8736 15.2706 63.8672C15.6354 61.16 18.9666 59.7008 23.5266 59.7008C23.7442 59.7008 23.9618 59.704 24.1794 59.7104L24.3906 59.2688H76.077L81.3762 69.3392H19.7154Z" fill="#E9F2DA"/>
<path d="M75.3665 63.9536C75.3665 65.7296 62.6561 67.1696 46.9697 67.1696C31.2929 67.1696 18.5825 65.7296 18.5825 63.9536C18.5825 62.168 31.2929 60.728 46.9697 60.728C62.6561 60.728 75.3665 62.168 75.3665 63.9536Z" fill="#F4F8EC"/>
<path d="M65.1233 53.96C65.1233 53.96 69.2417 52.9712 70.3169 52.7888C71.3825 52.6064 71.8241 53.0192 72.0641 54.2288C72.3137 55.4384 73.3121 60.008 73.2929 60.3824C73.2737 60.7664 73.0529 61.7744 72.5921 62.1872C72.1409 62.6096 70.9985 63.3488 70.7393 63.416C70.4705 63.4928 68.5985 63.5216 68.2625 63.416C67.9361 63.3104 67.8113 62.9456 68.3489 62.3888C68.8961 61.832 69.5393 61.0928 69.5585 60.9488C69.5777 60.8048 68.6465 57.5312 68.5313 57.5312C68.4065 57.5312 65.1809 58.2896 65.1809 58.2896L65.1233 53.96Z" fill="#E8AE91"/>
<path d="M58.7871 54.4304C58.7871 54.4304 65.2191 53.1152 65.4591 53.1152C65.7087 53.1152 66.3711 53.9792 66.7935 55.7456C67.2159 57.512 66.5439 61.8128 66.5439 61.8128L59.4687 62.7632L58.7871 54.4304Z" fill="#DFE6F4"/>
<path d="M65.5647 59.2496C65.8335 56.264 64.5951 54.104 64.0959 53.3552C64.8447 53.2112 65.3919 53.1152 65.4591 53.1152C65.7087 53.1152 66.3711 53.9792 66.7935 55.7456C67.2159 57.512 66.5439 61.8128 66.5439 61.8128L65.3535 61.976C65.3823 61.4096 65.4495 60.5552 65.5647 59.2496Z" fill="#B8C7E0"/>
<path d="M65.968 55.2752C65.968 55.2752 70.0864 54.2864 71.152 54.104C72.2272 53.9216 72.6592 54.3344 72.9088 55.544C73.1584 56.7536 74.1568 61.3232 74.1376 61.7072C74.1184 62.0816 73.888 63.0896 73.4368 63.512C72.976 63.9248 71.8432 64.664 71.5744 64.7312C71.3152 64.808 69.4432 64.8464 69.1072 64.7312C68.7712 64.6256 68.6464 64.2704 69.1936 63.704C69.7408 63.1472 70.384 62.408 70.4032 62.264C70.4224 62.12 69.4912 58.8464 69.3664 58.8464C69.2416 58.8464 66.0256 59.6048 66.0256 59.6048L65.968 55.2752Z" fill="#F4CFA2"/>
<path d="M40.1342 59.672C40.1342 59.672 39.8366 61.2464 39.2318 61.9184C38.6366 62.6 37.1582 62.9072 35.8238 62.792C34.4894 62.6768 33.1647 62.6288 32.9631 62.1296C32.7519 61.64 31.7727 61.976 31.5711 62.0048C31.3599 62.0336 30.8607 61.5248 31.7151 61.0064C32.5791 60.488 34.3646 60.1232 35.3438 60.1136C36.3326 60.0944 37.0622 59.2688 37.0622 59.2688L40.1342 59.672Z" fill="#E8AE91"/>
<path d="M47.5648 61.3232C47.5648 61.3232 47.1808 63.3488 46.4128 64.2128C45.6448 65.0768 43.744 65.48 42.0256 65.3264C40.3168 65.1824 38.6176 65.1152 38.3488 64.4816C38.0896 63.848 36.8224 64.28 36.5632 64.3184C36.304 64.3568 35.6512 63.704 36.7552 63.0416C37.8592 62.3696 40.1536 61.8992 41.4208 61.88C42.6784 61.8608 43.6288 60.7952 43.6288 60.7952L47.5648 61.3232Z" fill="#F4CFA2"/>
<path d="M44.3777 52.9808C44.3777 52.9808 40.4513 60.7088 40.0673 60.9296C39.6833 61.1408 36.0065 60.6416 35.6129 59.768C35.4785 59.4512 39.0113 52.952 39.0113 52.952L44.3777 52.9808Z" fill="#B8C7E0"/>
<path d="M34.0384 46.3088C36.3904 44.2832 49.8112 35.912 54.0544 35.4704C58.2976 35.0384 63.0592 39.7712 62.8864 44.072C62.7136 48.3632 61.024 55.4384 61.024 55.4384L66.4576 54.536C68.1088 57.0992 67.024 64.1072 67.024 64.1072C59.9008 65.2208 51.2512 65.9408 49.6672 62.5904C48.0928 59.2304 49.5328 54.4976 49.5328 54.4976C49.5328 54.4976 43.8208 57.7136 40.0288 57.752C36.2464 57.7904 34.1632 56.0048 33.2704 53.816C31.936 50.5616 31.6864 48.3248 34.0384 46.3088Z" fill="white"/>
<path d="M67.3599 60.2C67.3023 62.3024 67.0239 64.1072 67.0239 64.1072C59.9007 65.2208 51.2511 65.9408 49.6671 62.5904C48.0927 59.2304 49.5327 54.4976 49.5327 54.4976C49.5327 54.4976 43.8207 57.7136 40.0287 57.752C36.2463 57.7904 34.1631 56.0048 33.2703 53.816C32.5695 52.1072 32.1663 50.6768 32.2911 49.4096C32.4063 49.7648 32.5887 50.0816 32.8671 50.36C33.4335 50.936 34.2687 51.176 35.0271 51.3392C35.9103 51.5216 36.8127 51.5792 37.7055 51.704C39.1743 51.9152 40.6239 52.136 42.1119 52.0688C44.8095 51.9536 46.9599 50.6288 48.7263 48.5936C49.9359 47.2016 50.8767 45.6272 51.9999 44.168C52.3167 43.7552 53.7663 41.8448 54.1599 43.0256C54.3903 43.736 54.0639 44.6576 53.8527 45.3392C53.6223 46.1072 53.3151 46.8464 53.0175 47.5952C52.9983 47.6624 53.0559 47.7296 53.1231 47.7296C53.8527 47.72 54.2847 46.856 54.5823 46.2896C55.0047 45.512 55.3503 44.3696 56.0799 43.832C56.3967 44.4944 55.9455 45.4352 55.6767 46.0304C55.2639 46.9424 54.7455 47.8064 54.2463 48.68C53.3919 50.1776 52.9503 51.8576 52.5759 53.5472C52.3263 54.7184 51.7887 57.5696 53.6031 57.6656C53.9679 57.6848 54.8031 57.4064 55.0335 57.8C55.2159 58.1264 54.5439 58.6256 54.3615 58.7888C53.8719 59.2112 53.0079 59.6528 52.8159 60.3248C52.7967 60.3632 52.8159 60.4208 52.8639 60.44C53.2095 60.6416 53.5551 60.632 53.9391 60.6224C54.2751 60.6032 54.4959 60.68 54.3135 61.0448C54.2367 61.1984 54.1119 61.3232 53.9967 61.448C53.6031 61.8416 53.6703 62.1392 54.1023 62.4848C55.3887 63.5216 57.4719 63.4256 59.0271 63.4448C61.1583 63.4544 63.2415 62.8112 65.1039 61.7744C65.8719 61.352 66.6687 60.824 67.3599 60.2Z" fill="#DFE6F4"/>
<path d="M67.3599 60.2C67.3023 62.3024 67.0239 64.1072 67.0239 64.1072C59.9007 65.2208 51.2511 65.9408 49.6671 62.5904C48.0927 59.2304 49.5327 54.4976 49.5327 54.4976C49.5327 54.4976 49.5135 54.5104 49.4751 54.536C49.6959 53.816 49.8303 53.0768 49.9167 52.3664C50.0223 51.4928 50.0511 50.408 49.6767 49.592C49.4463 49.0832 49.0911 48.824 48.6975 48.6224C48.7103 48.616 48.7199 48.6064 48.7263 48.5936C49.9359 47.2016 50.8767 45.6272 51.9999 44.168C52.3167 43.7552 53.7663 41.8448 54.1599 43.0256C54.3903 43.736 54.0639 44.6576 53.8527 45.3392C53.6223 46.1072 53.3151 46.8464 53.0175 47.5952C52.9983 47.6624 53.0559 47.7296 53.1231 47.7296C53.8527 47.72 54.2847 46.856 54.5823 46.2896C55.0047 45.512 55.3503 44.3696 56.0799 43.832C56.3967 44.4944 55.9455 45.4352 55.6767 46.0304C55.2639 46.9424 54.7455 47.8064 54.2463 48.68C53.3919 50.1776 52.9503 51.8576 52.5759 53.5472C52.3263 54.7184 51.7887 57.5696 53.6031 57.6656C53.9679 57.6848 54.8031 57.4064 55.0335 57.8C55.2159 58.1264 54.5439 58.6256 54.3615 58.7888C53.8719 59.2112 53.0079 59.6528 52.8159 60.3248C52.7967 60.3632 52.8159 60.4208 52.8639 60.44C53.2095 60.6416 53.5551 60.632 53.9391 60.6224C54.2751 60.6032 54.4959 60.68 54.3135 61.0448C54.2367 61.1984 54.1119 61.3232 53.9967 61.448C53.6031 61.8416 53.6703 62.1392 54.1023 62.4848C55.3887 63.5216 57.4719 63.4256 59.0271 63.4448C61.1583 63.4544 63.2415 62.8112 65.1039 61.7744C65.8719 61.352 66.6687 60.824 67.3599 60.2Z" fill="#B8C7E0"/>
<path d="M31.7823 52.1456C31.6767 51.7424 32.5503 51.32 32.6847 51.2528C32.8191 51.1856 33.4047 51.3104 34.0959 52.3568C34.7775 53.4128 35.4207 55.256 35.4207 55.544C35.4207 55.8224 34.8927 56.1104 34.6335 56.1776C34.3455 56.2544 31.8879 52.5488 31.7823 52.1456Z" fill="white"/>
<path d="M30.8608 63.992C30.736 64.6928 30.2368 65.4512 29.968 65.2496C29.6896 65.048 28.1152 64.232 28.1152 64.232C28.1152 64.232 30.976 63.2912 30.8608 63.992Z" fill="#F4CFA2"/>
<path d="M31.5903 53.144L32.5503 52.472C32.5503 52.472 33.3567 53.2592 34.2879 55.6688C34.3167 55.736 33.4911 56.1776 33.4911 56.1776L31.5903 53.144Z" fill="#E8AE91"/>
<path d="M31.1969 52.5104C33.6929 53.5664 36.6401 60.0944 35.0561 62.3024C33.4433 64.5392 27.0593 64.7888 24.0833 64.1744C18.3041 62.984 20.8385 54.824 20.8385 54.824C21.3185 52.7696 28.7105 51.464 31.1969 52.5104Z" fill="#F4CFA2"/>
<path d="M30.4096 54.8048C30.2464 54.392 30.0352 54.0272 29.776 53.672C29.2288 52.952 28.4608 52.4432 27.616 52.184C29.056 52.088 30.3904 52.1744 31.1968 52.5104C32.752 53.1632 34.48 55.9472 35.1808 58.4816C34.9984 58.1648 34.7776 57.8672 34.5568 57.608C33.7408 56.6672 32.416 56.0816 31.2064 55.928C30.832 55.6208 30.6112 55.2752 30.4096 54.8048Z" fill="#E8AE91"/>
<path d="M24.6305 64.2704C24.4385 64.2448 24.2561 64.2128 24.0833 64.1744C18.3041 62.984 20.8385 54.824 20.8385 54.824C21.0977 53.7104 23.3729 52.8272 25.8017 52.4048C26.2721 53.5184 26.1473 54.8816 26.2241 56.0528C26.2817 56.8784 26.3393 57.6944 26.2721 58.52C26.2049 59.4512 25.8881 60.3728 25.6193 61.256C25.3793 62.0432 25.1105 62.8112 24.8513 63.5888C24.7745 63.8288 24.6881 64.0496 24.6305 64.2704Z" fill="#E8AE91"/>
<path d="M21.1553 52.1744C22.1537 51.2816 23.9201 50.5712 25.4945 50.552C25.4945 50.552 25.7633 49.9472 26.5217 49.928C27.2801 49.8992 27.3857 50.7344 27.3857 50.7344C27.3857 50.7344 27.8849 50.1104 28.6529 50.408C29.4113 50.7056 29.4881 51.4448 29.4881 51.4448C29.4881 51.4448 30.3041 50.4272 31.5425 52.4048C32.7809 54.3824 32.6177 54.9584 32.5697 55.2272C32.5121 55.5056 31.7249 56.3408 30.1793 57.368C28.6241 58.3952 28.0961 59.3168 24.2081 59.5088C20.3201 59.7008 21.1553 52.1744 21.1553 52.1744Z" fill="#16232B"/>
<path d="M30.6207 57.7328C29.4783 58.5584 27.3855 58.5104 27.2031 56.744C27.0207 54.9872 29.7279 54.7184 30.6783 55.7456C31.6191 56.7728 31.0623 57.416 30.6207 57.7328Z" fill="#F4CFA2"/>
<path d="M24.208 64.136C24.1408 64.2512 20.2816 64.1264 18.6496 60.6224C17.0176 57.1184 18.544 53.912 19.7344 52.5488C21.1072 51.0032 23.872 50.5136 24.4384 50.6768C24.736 50.8016 25.4368 52.3184 25.36 56.6864C25.2928 61.0544 24.208 64.136 24.208 64.136Z" fill="white"/>
<path d="M25.3599 56.6864C25.2927 61.0544 24.2079 64.136 24.2079 64.136C24.1791 64.184 23.6223 64.184 22.8447 63.992C23.3247 62.8016 23.7663 61.4576 23.9103 56.8304C24.0159 53.336 23.5359 51.56 23.1999 50.7536C23.7759 50.6384 24.2367 50.6192 24.4383 50.6768C24.7359 50.8016 25.4367 52.3184 25.3599 56.6864Z" fill="#DFE6F4"/>
<path d="M26.6656 61.4288C26.6944 61.4576 26.608 61.6016 26.5408 61.8128C26.4736 62.0144 26.4544 62.2832 26.4832 62.4848C26.5024 62.6864 26.5312 62.792 26.5312 62.8592C26.5312 62.9168 26.512 62.936 26.4832 62.9456C26.4544 62.9648 26.4256 62.9744 26.3776 62.9168C26.3392 62.8592 26.2816 62.744 26.2528 62.5136C26.224 62.2736 26.272 61.9568 26.3872 61.7456C26.5024 61.5248 26.6464 61.4096 26.6656 61.4288Z" fill="#16232B"/>
<path d="M27.7217 63.6368C27.7217 63.6176 27.8465 63.5792 28.0001 63.4352C28.1537 63.3104 28.2881 63.0416 28.2689 62.7248C28.2593 62.3984 28.1633 62.12 28.0481 61.9472C27.9329 61.7744 27.8273 61.6976 27.8369 61.6784C27.8465 61.6592 27.9905 61.6976 28.1345 61.88C28.2881 62.0528 28.4225 62.36 28.4225 62.7152C28.4321 62.8976 28.4033 63.0704 28.3361 63.2144C28.2689 63.3584 28.1633 63.464 28.0673 63.5312C27.8753 63.656 27.7313 63.656 27.7217 63.6368Z" fill="#16232B"/>
<path d="M32.6368 60.728C32.6656 60.7184 32.8384 61.1024 32.8864 61.6304C32.9344 62.1488 32.8096 62.5712 32.7616 62.552C32.7328 62.5424 32.7904 62.1392 32.7424 61.64C32.704 61.1408 32.5888 60.7376 32.6368 60.728Z" fill="#16232B"/>
<path d="M28.2976 56.2064C28.3072 56.216 28.2304 56.2736 28.1632 56.4176C28.1344 56.4848 28.1152 56.5808 28.144 56.6864C28.1728 56.7824 28.24 56.888 28.336 56.9744C28.528 57.1568 28.816 57.3104 29.1424 57.3968C29.296 57.4352 29.4688 57.464 29.632 57.4544C29.7184 57.4448 29.7952 57.4256 29.872 57.3872C29.9488 57.3552 30.016 57.3104 30.0736 57.2528C30.1984 57.1472 30.2464 57.0032 30.208 56.8976C30.1792 56.792 30.1024 56.7344 30.016 56.7056C29.8336 56.6672 29.7088 56.7056 29.6512 56.7536C29.584 56.8016 29.5648 56.8496 29.5552 56.8688C29.536 56.888 29.5264 56.888 29.5168 56.888C29.5072 56.8784 29.4976 56.8784 29.4976 56.8496C29.4976 56.8208 29.4976 56.7536 29.5744 56.6672C29.6608 56.5808 29.824 56.5136 30.0544 56.5712C30.16 56.5904 30.304 56.6864 30.3616 56.8592C30.4096 57.032 30.3328 57.2432 30.1792 57.368C30.1024 57.4448 30.016 57.4928 29.9296 57.5312C29.8432 57.5696 29.7472 57.5984 29.6512 57.608C29.4592 57.6176 29.2768 57.5888 29.104 57.5408C28.768 57.4448 28.4704 57.2816 28.2592 57.0704C28.1632 56.9648 28.0768 56.8496 28.0576 56.7152C28.0192 56.5904 28.048 56.4752 28.096 56.3984C28.192 56.2448 28.288 56.1968 28.2976 56.2064Z" fill="#16232B"/>
<path d="M39.1936 48.7952C40.2784 48.5456 46.624 48.7952 49.072 48.7952C51.5296 48.7952 54.1216 49.9856 53.8048 52.2992C53.488 54.6128 48.1312 63.2048 47.3536 63.3488C46.5856 63.4928 42.6592 61.7552 42.6304 61.3616C42.592 60.9584 47.1808 54.248 47.1808 54.248C47.1808 54.248 42.448 54.4304 40.1728 54.392C37.8976 54.3536 37.1392 52.7312 37.264 51.0032C37.3312 49.9856 38.1088 49.0448 39.1936 48.7952Z" fill="#DFE6F4"/>
<path d="M48.6688 61.8608C48.0352 62.7344 47.5552 63.3104 47.3536 63.3488C46.5856 63.4928 42.6592 61.7552 42.6304 61.3616C42.592 60.9584 47.1808 54.248 47.1808 54.248C47.1808 54.248 42.448 54.4304 40.1728 54.392C37.8976 54.3536 37.1392 52.7312 37.264 51.0032C37.2832 50.7536 37.3408 50.5232 37.4272 50.2928C37.6768 51.4352 39.0208 52.2128 40.1248 52.6064C41.2384 53.0096 42.3616 53.0192 43.5328 53.0576C44.3968 53.0864 45.2704 53.1248 46.1248 53.0672C46.9312 53.0192 47.7184 52.8368 48.5152 52.7408C48.4576 52.856 48.4192 52.9808 48.352 53.096C48.3136 53.1536 48.352 53.2304 48.4192 53.2496C48.9952 53.48 49.6288 53.1248 50.1952 52.856C49.0336 54.4496 47.3152 55.6304 46.6816 57.5792C46.3936 58.4816 46.336 59.5472 46.7488 60.4112C46.9504 60.8432 47.3248 61.16 47.7088 61.4192C48.0064 61.6112 48.3424 61.7264 48.6688 61.8608Z" fill="#B8C7E0"/>
<path d="M48.5344 62.0432C47.968 62.8112 47.536 63.3104 47.3536 63.3488C46.5856 63.4928 42.6592 61.7552 42.6304 61.3616C42.6208 61.256 42.9088 60.7472 43.3504 60.0368C44.3584 60.6992 46.2592 61.7552 48.5344 62.0432Z" fill="white"/>
<path d="M40.8448 59.6912C40.4512 60.392 40.1632 60.872 40.0672 60.9296C39.6832 61.1408 36.0064 60.6416 35.6128 59.768C35.5744 59.6816 35.8048 59.1536 36.16 58.4144C36.8416 58.8752 38.32 59.6048 40.8448 59.6912Z" fill="#DFE6F4"/>
<path d="M39.3663 64.1072C39.3663 64.1072 38.4159 64.1744 37.5039 64.6256C36.6015 65.0768 35.9103 64.7504 36.3039 64.1744C36.6879 63.5984 38.4159 63.1664 38.4159 63.1664" fill="#F4CFA2"/>
<path d="M40 64.8272C40 64.8272 39.2992 65.0576 38.4928 65.3648C37.6864 65.672 37.0912 65.0576 37.5808 64.5776C38.0704 64.088 39.4048 63.8672 39.4048 63.8672" fill="#F4CFA2"/>
<path d="M53.4399 47.624C53.4207 47.624 53.5455 47.2208 53.7087 46.6256C53.8719 46.0208 54.0639 45.2144 54.1407 44.408C54.1791 44.0048 54.1887 43.6976 54.1791 43.4672C54.1695 43.2368 54.1503 43.0832 54.1311 42.9776C54.1023 42.7664 54.1023 42.7568 54.1215 42.7472C54.1311 42.7472 54.1599 42.7472 54.2175 42.9584C54.2367 43.064 54.2655 43.2272 54.2847 43.4576C54.2943 43.6976 54.2943 44.0048 54.2559 44.4176C54.1791 45.2336 53.9775 46.04 53.7951 46.6352C53.7087 46.9328 53.6223 47.1824 53.5551 47.3552C53.4975 47.528 53.4495 47.624 53.4399 47.624Z" fill="#2C3B44"/>
<path d="M54.2272 48.3056C54.208 48.3056 54.4479 47.9696 54.7647 47.4416C55.0911 46.9232 55.4656 46.2032 55.7632 45.4544C56.0416 44.7056 56.1279 44.3024 56.1855 44.1008C56.2335 43.8896 56.2432 43.8896 56.2624 43.8896C56.272 43.8896 56.2912 43.8992 56.2624 44.1104C56.2336 44.3216 56.1567 44.744 55.8687 45.4928C55.5711 46.2512 55.1872 46.9712 54.8512 47.48C54.6784 47.7392 54.5344 47.9504 54.4192 48.0944C54.304 48.2288 54.2368 48.3152 54.2272 48.3056Z" fill="#2C3B44"/>
<path d="M59.9968 57.1568C59.9968 57.1568 60.8896 55.3712 61.0432 54.9296C61.2064 54.4976 61.8304 54.5936 61.1296 57.4064" fill="#DFE6F4"/>
<path d="M66.4575 54.536C68.1087 57.0992 67.0239 64.1072 67.0239 64.1072C66.4191 64.2032 65.7951 64.2896 65.1807 64.376C65.2863 63.5024 65.4591 61.6976 65.4975 59.1248C65.5359 56.5424 65.1135 55.3232 64.8447 54.8048L66.4575 54.536Z" fill="#DFE6F4"/>
</svg>
