<svg width="85" height="14" viewBox="0 0 85 14" fill="none" xmlns="http://www.w3.org/2000/svg">
<path d="M17.7245 12.8706L17.6577 12.7538C17.2461 12.9429 16.8179 13.0764 16.3729 13.1542C15.9391 13.2432 15.4997 13.2877 15.0548 13.2877C14.3985 13.2877 13.7533 13.2099 13.1193 13.0541C12.4852 12.8984 11.8623 12.6982 11.2505 12.4534C10.6498 12.1976 10.0547 11.9084 9.46514 11.5858C8.88671 11.2632 8.32497 10.9406 7.77991 10.618C8.4362 10.1397 8.93677 9.53348 9.2816 8.79932C9.63756 8.06516 9.81554 7.29763 9.81554 6.49673C9.81554 5.82931 9.68762 5.21751 9.43177 4.66132C9.18705 4.10514 8.84778 3.62682 8.41396 3.22637C7.99126 2.82592 7.49069 2.52002 6.91226 2.30867C6.33383 2.0862 5.72203 1.97496 5.07686 1.97496C4.39832 1.97496 3.76427 2.09732 3.17471 2.34204C2.58516 2.58676 2.06791 2.92603 1.62296 3.35985C1.18914 3.79368 0.844307 4.30537 0.588463 4.89492C0.332619 5.47335 0.204697 6.10184 0.204697 6.78038C0.204697 7.49229 0.321495 8.14303 0.555092 8.73258C0.788689 9.32214 1.11684 9.83382 1.53954 10.2676C1.96223 10.6903 2.4628 11.0185 3.04123 11.2521C3.63078 11.4857 4.28152 11.6025 4.99343 11.6025C5.28265 11.6025 5.58855 11.5691 5.91113 11.5024C6.23372 11.4356 6.52293 11.3411 6.77878 11.2187C6.8344 11.2187 6.91783 11.2465 7.02906 11.3021C7.15142 11.3466 7.27934 11.4023 7.41283 11.469C7.55744 11.5357 7.70204 11.608 7.84665 11.6859C7.99126 11.7638 8.12474 11.8361 8.2471 11.9028V11.8861C8.32497 11.9306 8.39171 11.9696 8.44733 12.0029C8.50295 12.0363 8.54744 12.0641 8.58081 12.0864C9.01463 12.3088 9.46514 12.5202 9.93234 12.7204C10.4107 12.9318 10.8945 13.1153 11.384 13.271C11.8734 13.4379 12.3684 13.5658 12.869 13.6548C13.3695 13.7549 13.8701 13.805 14.3707 13.805C14.9602 13.805 15.5387 13.7271 16.106 13.5714C16.6733 13.4156 17.2128 13.182 17.7245 12.8706ZM8.54744 6.58015C8.54744 7.06959 8.47514 7.54235 8.33053 7.99842C8.19705 8.45449 8.00238 8.87719 7.74654 9.26652C7.49069 9.65585 7.17923 10.0007 6.81215 10.301C6.44507 10.6014 6.03349 10.8405 5.57742 11.0185C4.99899 10.9073 4.45393 10.7015 3.94225 10.4011C3.44168 10.0897 2.99674 9.71146 2.60741 9.26652C2.2292 8.82157 1.92886 8.32657 1.70639 7.78151C1.48392 7.23645 1.37268 6.66914 1.37268 6.07959C1.37268 5.54565 1.46167 5.06177 1.63965 4.62795C1.81763 4.183 2.06235 3.8048 2.37381 3.49334C2.6964 3.18188 3.08016 2.94272 3.52511 2.77586C3.97006 2.60901 4.4595 2.52558 4.99343 2.52558C5.56074 2.52558 6.0613 2.63682 6.49513 2.85929C6.94007 3.08176 7.31271 3.3821 7.61305 3.76031C7.91339 4.12739 8.14143 4.55565 8.29716 5.04509C8.46401 5.53453 8.54744 6.04622 8.54744 6.58015ZM19.7096 2.30867L19.693 2.17518C19.4927 2.16406 19.2925 2.16406 19.0923 2.17518C18.8921 2.17518 18.6974 2.17518 18.5083 2.17518C18.4193 2.17518 18.3247 2.18075 18.2246 2.19187C18.1356 2.19187 18.0467 2.19187 17.9577 2.19187C17.6573 2.19187 17.3514 2.17518 17.04 2.14181C17.0066 2.14181 16.9843 2.16406 16.9732 2.20856C16.9732 2.24193 16.9899 2.26417 17.0233 2.2753C17.3347 2.33092 17.5739 2.43659 17.7408 2.59232C17.9076 2.73693 17.991 2.97053 17.991 3.29311L18.0244 8.33213C18.0244 8.72146 17.9577 9.07185 17.8242 9.38332C17.7018 9.69478 17.5238 9.96175 17.2902 10.1842C17.0566 10.4067 16.7786 10.5791 16.456 10.7015C16.1334 10.8238 15.783 10.885 15.4048 10.885C15.0377 10.885 14.6929 10.8238 14.3703 10.7015C14.0588 10.5791 13.7863 10.4123 13.5527 10.2009C13.3191 9.97843 13.1356 9.71703 13.0021 9.41669C12.8797 9.10522 12.8185 8.76039 12.8185 8.38219L12.8519 3.27643C12.8519 3.0762 12.9409 2.89266 13.1189 2.72581C13.308 2.54783 13.4915 2.41434 13.6695 2.32535C13.7029 2.30311 13.714 2.2753 13.7029 2.24193C13.6917 2.20856 13.6695 2.19187 13.6361 2.19187C13.4581 2.20299 13.2857 2.20856 13.1189 2.20856C12.952 2.20856 12.7796 2.20856 12.6016 2.20856C11.9787 2.20856 11.3502 2.19187 10.7162 2.1585C10.6828 2.1585 10.6605 2.18075 10.6494 2.22524C10.6494 2.25861 10.6661 2.28086 10.6995 2.29198C10.9998 2.36985 11.2334 2.47552 11.4003 2.60901C11.5782 2.74249 11.6672 2.97053 11.6672 3.29311V4.97835C11.6672 5.21194 11.6617 5.46779 11.6506 5.74588C11.6506 6.02397 11.6506 6.30762 11.6506 6.59684C11.6506 6.84156 11.6506 7.08628 11.6506 7.331C11.6617 7.57572 11.6672 7.80376 11.6672 8.01511C11.6784 8.21533 11.6895 8.39887 11.7006 8.56573C11.7229 8.72146 11.7507 8.83826 11.784 8.91612C11.9064 9.2832 12.0899 9.62247 12.3347 9.93394C12.5905 10.2454 12.8797 10.5179 13.2023 10.7515C13.5249 10.9851 13.8697 11.1687 14.2368 11.3021C14.615 11.4245 14.9988 11.4857 15.3881 11.4857C15.922 11.4857 16.4004 11.3911 16.8231 11.202C17.2569 11.0018 17.624 10.7348 17.9243 10.4011C18.2246 10.0563 18.4582 9.65585 18.6251 9.19978C18.7919 8.74371 18.8754 8.25983 18.8754 7.74814V3.27643C18.8754 3.04283 18.9532 2.83704 19.109 2.65906C19.2647 2.46996 19.4649 2.35316 19.7096 2.30867ZM29.586 11.202L29.536 11.0685C29.2022 11.113 28.8741 11.0574 28.5515 10.9017C28.2289 10.7348 27.9175 10.5124 27.6171 10.2343C27.3168 9.94506 27.0276 9.62804 26.7495 9.2832C26.4825 8.92725 26.2267 8.58241 25.9819 8.2487C25.8151 8.02623 25.6594 7.81488 25.5148 7.61465C25.3701 7.4033 25.2367 7.23089 25.1143 7.0974C25.4814 6.75257 25.8095 6.34099 26.0987 5.86268C26.3991 5.38436 26.5493 4.87823 26.5493 4.3443C26.5493 3.94385 26.4714 3.59901 26.3157 3.3098C26.1599 3.02058 25.9541 2.78699 25.6983 2.60901C25.4425 2.43103 25.1477 2.30311 24.814 2.22524C24.4803 2.13625 24.141 2.09176 23.7962 2.09176H20.5091C20.4757 2.09176 20.4535 2.114 20.4424 2.1585C20.4424 2.19187 20.4591 2.21412 20.4924 2.22524C20.7483 2.29198 20.9652 2.42547 21.1432 2.62569C21.3323 2.8148 21.4268 3.03727 21.4268 3.29311V9.95062C21.4268 10.2065 21.3489 10.4456 21.1932 10.6681C21.0375 10.8906 20.8428 11.0574 20.6092 11.1687C20.5759 11.1909 20.5647 11.2243 20.5759 11.2688C20.5981 11.3021 20.6259 11.3133 20.6593 11.3021C20.9151 11.2688 21.1598 11.241 21.3934 11.2187C21.6382 11.1965 21.8884 11.1853 22.1443 11.1853C22.4001 11.1853 22.6504 11.1965 22.8951 11.2187C23.151 11.2298 23.4068 11.2465 23.6627 11.2688V11.1353C23.3401 11.1019 23.0787 10.974 22.8784 10.7515C22.6893 10.5179 22.5948 10.2398 22.5948 9.91725V7.54791C22.6838 7.52566 22.7672 7.51454 22.8451 7.51454C22.9341 7.51454 23.0231 7.51454 23.112 7.51454C23.4124 7.51454 23.6794 7.57016 23.9129 7.6814C24.1577 7.79263 24.3801 7.9428 24.5804 8.1319C24.7917 8.30988 24.9808 8.51567 25.1477 8.74927C25.3257 8.97174 25.4925 9.19978 25.6482 9.43337C25.8151 9.68922 25.9875 9.9395 26.1655 10.1842C26.3546 10.4289 26.5548 10.6459 26.7662 10.835C26.9775 11.0241 27.2167 11.1798 27.4836 11.3021C27.7506 11.4245 28.051 11.4857 28.3847 11.4857C28.5849 11.4857 28.7851 11.4634 28.9853 11.4189C29.1967 11.3633 29.3969 11.291 29.586 11.202ZM25.3646 4.96166C25.3646 5.56234 25.2422 6.03509 24.9975 6.37993C24.7639 6.71364 24.3356 6.88049 23.7127 6.88049C23.5236 6.88049 23.3401 6.87493 23.1621 6.86381C22.9841 6.85268 22.8006 6.83044 22.6115 6.79706V2.64238C22.7338 2.58676 22.8618 2.55339 22.9952 2.54227C23.1287 2.52002 23.2622 2.50889 23.3957 2.50889C23.7183 2.50889 24.0019 2.58676 24.2467 2.74249C24.4914 2.8871 24.6972 3.0762 24.864 3.3098C25.0309 3.54339 25.1532 3.8048 25.2311 4.09402C25.3201 4.38323 25.3646 4.67245 25.3646 4.96166ZM31.6516 0.973829C31.6516 0.706861 31.5626 0.501074 31.3847 0.356466C31.2178 0.200735 31.0065 0.128431 30.7506 0.139555L30.4002 0.156241C30.6449 0.556692 30.7673 0.979391 30.7673 1.42434C30.7673 1.78029 30.7117 2.13625 30.6004 2.49221C30.5003 2.83704 30.4058 3.18188 30.3168 3.52671C30.4614 3.3821 30.6116 3.20968 30.7673 3.00946C30.923 2.79811 31.0676 2.5812 31.2011 2.35872C31.3346 2.12513 31.4403 1.89153 31.5181 1.65793C31.6071 1.41321 31.6516 1.18518 31.6516 0.973829ZM41.5465 11.202V11.0685C41.2795 11.0463 41.0404 10.9796 40.829 10.8683C40.6288 10.7571 40.462 10.5735 40.3285 10.3177C39.6944 9.11635 39.1271 7.88718 38.6266 6.63021C38.1371 5.37324 37.6644 4.12182 37.2083 2.87597C37.1527 2.72024 37.0915 2.57007 37.0247 2.42547C36.9691 2.26974 36.9135 2.114 36.8579 1.95827C36.8468 1.9249 36.8245 1.90822 36.7911 1.90822C36.7578 1.90822 36.7355 1.9249 36.7244 1.95827C36.5131 2.51446 36.3128 3.07064 36.1237 3.62682C35.9346 4.17188 35.74 4.7225 35.5397 5.27869C35.2505 6.10184 34.9557 6.91943 34.6554 7.73145C34.3551 8.54348 34.0436 9.35551 33.721 10.1675V10.1508C33.4763 10.7182 33.048 11.0407 32.4362 11.1186C32.4029 11.1297 32.3862 11.1575 32.3862 11.202C32.3973 11.2465 32.4196 11.2632 32.4529 11.2521C32.6754 11.2298 32.8979 11.2132 33.1203 11.202C33.3428 11.1798 33.5653 11.1687 33.7878 11.1687C34.0102 11.1687 34.2327 11.1798 34.4552 11.202C34.6777 11.2132 34.8946 11.2298 35.1059 11.2521V11.1186C34.9724 11.0964 34.8334 11.063 34.6888 11.0185C34.5442 10.9629 34.4719 10.8516 34.4719 10.6848C34.4719 10.5624 34.5108 10.3678 34.5887 10.1008C34.6665 9.8227 34.7555 9.53348 34.8556 9.23315C34.9557 8.92168 35.0559 8.62691 35.156 8.34882C35.2672 8.0596 35.3506 7.84269 35.4063 7.69808H37.9925C38.1816 8.23202 38.3763 8.75483 38.5765 9.26652C38.7878 9.76708 38.9881 10.2788 39.1772 10.8016L38.5264 11.1186C38.4931 11.1409 38.4819 11.1687 38.4931 11.202C38.5042 11.2354 38.5264 11.2521 38.5598 11.2521C38.8157 11.2298 39.0715 11.2076 39.3273 11.1853C39.5832 11.1631 39.839 11.152 40.0949 11.152C40.195 11.152 40.2895 11.1575 40.3785 11.1687C40.4786 11.1687 40.5732 11.1742 40.6622 11.1853C40.8179 11.1965 40.9625 11.2076 41.096 11.2187C41.2406 11.2298 41.3908 11.2243 41.5465 11.202ZM37.7422 7.14746H35.5898C35.8011 6.54678 35.9902 5.96835 36.1571 5.41217C36.3351 4.84486 36.5186 4.26643 36.7077 3.67688L37.7422 7.14746ZM52.0713 2.2753L52.0379 2.14181C51.9823 2.14181 51.9211 2.14181 51.8544 2.14181C51.7876 2.13069 51.7264 2.12513 51.6708 2.12513C51.5151 2.114 51.3594 2.114 51.2036 2.12513C51.059 2.12513 50.9144 2.12513 50.7698 2.12513C50.5362 2.12513 50.3026 2.12513 50.069 2.12513C49.8465 2.12513 49.6074 2.10844 49.3515 2.07507C49.3293 2.06395 49.307 2.07507 49.2848 2.10844C49.2737 2.14181 49.2792 2.16962 49.3015 2.19187C49.3571 2.24749 49.4183 2.28642 49.485 2.30867C49.5629 2.31979 49.6463 2.33092 49.7353 2.34204C49.8132 2.35316 49.891 2.36985 49.9689 2.3921C50.0468 2.41434 50.1191 2.45884 50.1858 2.52558C50.2526 2.5812 50.3026 2.67019 50.336 2.79255C50.3805 2.90378 50.4027 3.05395 50.4027 3.24306C50.4027 3.72137 50.4083 4.23306 50.4194 4.77812C50.4305 5.31206 50.4417 5.81818 50.4528 6.2965C50.4639 6.81931 50.4695 7.331 50.4695 7.83157C50.4806 8.33213 50.4862 8.83826 50.4862 9.34994V9.4C49.3182 8.09853 48.1669 6.84156 47.0323 5.62908C45.8976 4.40548 44.7241 3.16519 43.5116 1.90822C43.5005 1.88597 43.4838 1.88041 43.4616 1.89153C43.4393 1.90266 43.4226 1.91934 43.4115 1.94159L43.278 2.20856V10.0174C43.278 10.2732 43.2224 10.4623 43.1112 10.5847C43.0111 10.6959 42.8943 10.7849 42.7608 10.8516C42.694 10.885 42.6217 10.9239 42.5439 10.9684C42.4771 11.0129 42.3993 11.0741 42.3103 11.152C42.288 11.1742 42.2825 11.202 42.2936 11.2354C42.3158 11.2688 42.3436 11.2799 42.377 11.2688C42.5884 11.2354 42.7997 11.2076 43.0111 11.1853C43.2224 11.152 43.4282 11.1353 43.6284 11.1353C43.7841 11.1353 43.9399 11.1409 44.0956 11.152C44.2625 11.1631 44.4238 11.1798 44.5795 11.202C44.6907 11.2132 44.7964 11.2243 44.8965 11.2354C45.0078 11.2465 45.119 11.2577 45.2302 11.2688C45.2636 11.2688 45.2803 11.2577 45.2803 11.2354C45.2914 11.202 45.2858 11.1742 45.2636 11.152C45.1412 11.063 45.0356 11.0074 44.9466 10.9851C44.8576 10.9518 44.7686 10.9239 44.6796 10.9017C44.6017 10.8906 44.5239 10.8739 44.446 10.8516C44.3793 10.8183 44.3181 10.7682 44.2625 10.7015C44.218 10.6347 44.179 10.5457 44.1457 10.4345C44.1123 10.3121 44.0956 10.1564 44.0956 9.96731C44.0956 9.53348 44.0901 9.10522 44.0789 8.68252C44.0678 8.25983 44.0511 7.83713 44.0289 7.41443C44.0066 6.99173 43.9899 6.56903 43.9788 6.14633C43.9677 5.72363 43.9621 5.30093 43.9621 4.87823C43.9621 4.60014 43.9788 4.31093 44.0122 4.01059C44.1679 4.17744 44.307 4.33874 44.4293 4.49447C44.5517 4.63907 44.6907 4.79481 44.8465 4.96166C45.3025 5.4956 45.7808 6.04622 46.2814 6.61352C46.782 7.16971 47.2881 7.72589 47.7998 8.28207C48.3226 8.82713 48.851 9.36663 49.3849 9.90057C49.9188 10.4234 50.4528 10.9128 50.9867 11.3689C51.009 11.3911 51.0312 11.3967 51.0535 11.3856C51.0868 11.3633 51.1035 11.3411 51.1035 11.3188C51.1591 10.6848 51.1981 10.0563 51.2203 9.43337C51.2426 8.79932 51.2537 8.15971 51.2537 7.51454V6.83044L51.237 2.80923C51.237 2.64238 51.3204 2.52558 51.4873 2.45884C51.6653 2.3921 51.8321 2.33648 51.9878 2.29198C52.0101 2.28086 52.0212 2.28086 52.0212 2.29198C52.0323 2.29198 52.049 2.28642 52.0713 2.2753ZM62.8167 4.29424C62.8167 3.87154 62.7611 3.52115 62.6499 3.24306C62.5386 2.96496 62.3773 2.74805 62.166 2.59232C61.9546 2.42547 61.6988 2.30867 61.3985 2.24193C61.0981 2.17518 60.7589 2.14181 60.3806 2.14181H58.9123C58.5897 2.14181 58.2672 2.14181 57.9446 2.14181C57.622 2.13069 57.2883 2.10844 56.9434 2.07507C56.9101 2.07507 56.8878 2.09732 56.8767 2.14181C56.8767 2.17518 56.8934 2.19743 56.9268 2.20856C57.1492 2.26417 57.3606 2.36985 57.5608 2.52558C57.761 2.67019 57.8611 2.85929 57.8611 3.09289V9.93394C57.8611 10.123 57.8556 10.2899 57.8445 10.4345C57.8445 10.568 57.8166 10.6792 57.761 10.7682C57.7165 10.8572 57.6387 10.9295 57.5274 10.9851C57.4162 11.0407 57.2605 11.0852 57.0602 11.1186C57.0269 11.1297 57.0102 11.1575 57.0102 11.202C57.0213 11.2354 57.0435 11.2521 57.0769 11.2521C57.266 11.2632 57.4496 11.2688 57.6275 11.2688C57.8166 11.2688 58.0057 11.2688 58.1948 11.2688H60.097C60.1304 11.2688 60.147 11.2465 60.147 11.202C60.147 11.1575 60.1304 11.1353 60.097 11.1353C59.7188 11.113 59.4463 11.0241 59.2794 10.8683C59.1125 10.7126 59.0291 10.4512 59.0291 10.0841V2.72581C59.2961 2.59232 59.5853 2.52558 59.8968 2.52558C60.1971 2.52558 60.4641 2.59788 60.6977 2.74249C60.9424 2.87597 61.1482 3.05395 61.315 3.27643C61.4819 3.4989 61.6098 3.74918 61.6988 4.02727C61.7878 4.29424 61.8323 4.56677 61.8323 4.84486C61.8323 5.46779 61.6487 5.97948 61.2817 6.37993C60.9146 6.76926 60.414 6.96392 59.78 6.96392H59.4963C59.4629 6.96392 59.4407 6.98617 59.4296 7.03066C59.4296 7.06403 59.4463 7.08628 59.4796 7.0974C59.7355 7.15302 59.9746 7.18083 60.1971 7.18083C60.5753 7.18083 60.9257 7.0974 61.2483 6.93055C61.5709 6.76369 61.849 6.54678 62.0826 6.27981C62.3162 6.00172 62.4941 5.69026 62.6165 5.34543C62.75 5.00059 62.8167 4.6502 62.8167 4.29424ZM69.3139 9.53349L69.1804 9.50011C68.9913 9.88944 68.7188 10.2065 68.3628 10.4512C68.0069 10.6848 67.6175 10.8016 67.1948 10.8016C66.761 10.8016 66.3939 10.6792 66.0936 10.4345C65.8044 10.1787 65.6598 9.81714 65.6598 9.34994V3.14294C65.6598 2.90935 65.7543 2.71468 65.9434 2.55895C66.1325 2.3921 66.3439 2.28642 66.5775 2.24193C66.6109 2.2308 66.622 2.20856 66.6109 2.17518C66.6109 2.13069 66.5942 2.10844 66.5608 2.10844C65.9601 2.14181 65.3706 2.1585 64.7921 2.1585C64.5808 2.1585 64.375 2.1585 64.1748 2.1585C63.9745 2.1585 63.7688 2.15294 63.5574 2.14181V2.2753C63.8244 2.28642 64.0468 2.36985 64.2248 2.52558C64.4028 2.68131 64.4918 2.89266 64.4918 3.15963V9.95062C64.4918 10.0507 64.4751 10.1675 64.4417 10.301C64.4084 10.4345 64.3583 10.5624 64.2916 10.6848C64.2248 10.796 64.1414 10.8906 64.0413 10.9684C63.9412 11.0463 63.8299 11.0908 63.7076 11.1019C63.6742 11.1019 63.6575 11.1242 63.6575 11.1687C63.6575 11.2132 63.6742 11.2354 63.7076 11.2354C63.7632 11.2354 63.8188 11.2354 63.8744 11.2354C63.9412 11.2243 64.0024 11.2187 64.058 11.2187C64.4251 11.2076 64.7921 11.1965 65.1592 11.1853C65.5263 11.1742 65.8934 11.1687 66.2605 11.1687C66.7165 11.1687 67.1615 11.1798 67.5953 11.202C68.0402 11.2132 68.4852 11.241 68.9301 11.2855C68.9301 11.2855 68.9468 11.2799 68.9802 11.2688C69.0136 11.2465 69.0302 11.2187 69.0302 11.1853C69.0302 11.152 69.0247 11.1297 69.0136 11.1186C69.1248 10.8961 69.1915 10.6737 69.2138 10.4512C69.2472 10.2176 69.275 9.97843 69.2972 9.73371C69.2972 9.70034 69.2972 9.66697 69.2972 9.6336C69.3083 9.60023 69.3139 9.56686 69.3139 9.53349ZM79.1028 2.30867L79.0861 2.17518C78.8859 2.16406 78.6857 2.16406 78.4854 2.17518C78.2852 2.17518 78.0906 2.17518 77.9015 2.17518C77.8125 2.17518 77.7179 2.18075 77.6178 2.19187C77.5288 2.19187 77.4398 2.19187 77.3508 2.19187C77.0505 2.19187 76.7446 2.17518 76.4331 2.14181C76.3998 2.14181 76.3775 2.16406 76.3664 2.20856C76.3664 2.24193 76.3831 2.26417 76.4164 2.2753C76.7279 2.33092 76.9671 2.43659 77.1339 2.59232C77.3008 2.73693 77.3842 2.97053 77.3842 3.29311L77.4176 8.33213C77.4176 8.72146 77.3508 9.07185 77.2173 9.38332C77.095 9.69478 76.917 9.96175 76.6834 10.1842C76.4498 10.4067 76.1717 10.5791 75.8491 10.7015C75.5266 10.8238 75.1762 10.885 74.798 10.885C74.4309 10.885 74.086 10.8238 73.7635 10.7015C73.452 10.5791 73.1795 10.4123 72.9459 10.2009C72.7123 9.97843 72.5287 9.71703 72.3952 9.41669C72.2729 9.10522 72.2117 8.76039 72.2117 8.38219L72.2451 3.27643C72.2451 3.0762 72.3341 2.89266 72.512 2.72581C72.7011 2.54783 72.8847 2.41434 73.0627 2.32535C73.096 2.30311 73.1072 2.2753 73.096 2.24193C73.0849 2.20856 73.0627 2.19187 73.0293 2.19187C72.8513 2.20299 72.6789 2.20856 72.512 2.20856C72.3452 2.20856 72.1728 2.20856 71.9948 2.20856C71.3719 2.20856 70.7434 2.19187 70.1093 2.1585C70.076 2.1585 70.0537 2.18075 70.0426 2.22524C70.0426 2.25861 70.0593 2.28086 70.0926 2.29198C70.393 2.36985 70.6266 2.47552 70.7934 2.60901C70.9714 2.74249 71.0604 2.97053 71.0604 3.29311V4.97835C71.0604 5.21194 71.0548 5.46779 71.0437 5.74588C71.0437 6.02397 71.0437 6.30762 71.0437 6.59684C71.0437 6.84156 71.0437 7.08628 71.0437 7.331C71.0548 7.57572 71.0604 7.80376 71.0604 8.01511C71.0715 8.21533 71.0826 8.39887 71.0938 8.56573C71.116 8.72146 71.1438 8.83826 71.1772 8.91612C71.2996 9.2832 71.4831 9.62247 71.7278 9.93394C71.9837 10.2454 72.2729 10.5179 72.5955 10.7515C72.9181 10.9851 73.2629 11.1687 73.63 11.3021C74.0082 11.4245 74.3919 11.4857 74.7813 11.4857C75.3152 11.4857 75.7935 11.3911 76.2162 11.202C76.65 11.0018 77.0171 10.7348 77.3175 10.4011C77.6178 10.0563 77.8514 9.65585 78.0183 9.19978C78.1851 8.74371 78.2685 8.25983 78.2685 7.74814V3.27643C78.2685 3.04283 78.3464 2.83704 78.5021 2.65906C78.6579 2.46996 78.8581 2.35316 79.1028 2.30867ZM84.6076 8.83269C84.6076 8.53236 84.552 8.25426 84.4407 7.99842C84.3295 7.74258 84.1849 7.50342 84.0069 7.28094C83.8289 7.04735 83.6231 6.83044 83.3895 6.63021C83.1671 6.41886 82.939 6.21863 82.7054 6.02953C82.4941 5.85155 82.2883 5.67914 82.0881 5.51228C81.8878 5.3343 81.7099 5.15633 81.5541 4.97835C81.4095 4.80037 81.2872 4.61683 81.1871 4.42773C81.0981 4.23862 81.0536 4.03284 81.0536 3.81036C81.0536 3.38766 81.1926 3.04283 81.4707 2.77586C81.7599 2.49777 82.1159 2.35872 82.5386 2.35872C82.9502 2.35872 83.2783 2.49777 83.523 2.77586C83.7789 3.05395 83.9513 3.38766 84.0403 3.77699C84.0514 3.81036 84.0736 3.82705 84.107 3.82705C84.1404 3.82705 84.1626 3.81036 84.1738 3.77699C84.2627 3.19856 84.3295 2.63682 84.374 2.09176C84.374 2.06951 84.3573 2.04726 84.3239 2.02502C83.9568 1.91378 83.5508 1.85816 83.1059 1.85816C82.7944 1.85816 82.4552 1.90266 82.0881 1.99164C81.721 2.06951 81.3817 2.19743 81.0703 2.37541C80.7588 2.54227 80.4974 2.76474 80.286 3.04283C80.0747 3.3098 79.969 3.63238 79.969 4.01059C79.969 4.26643 80.0246 4.51671 80.1359 4.76144C80.2471 5.00616 80.3917 5.25088 80.5697 5.4956C80.7477 5.72919 80.9535 5.96279 81.1871 6.19639C81.4207 6.41886 81.6543 6.64133 81.8878 6.86381C82.1103 7.07516 82.3272 7.28651 82.5386 7.49786C82.7499 7.7092 82.939 7.92055 83.1059 8.1319C83.2727 8.34325 83.4062 8.5546 83.5063 8.76595C83.6065 8.96618 83.6565 9.17197 83.6565 9.38332C83.6565 9.60579 83.6009 9.81158 83.4897 10.0007C83.3784 10.1787 83.2338 10.3344 83.0558 10.4679C82.889 10.5902 82.6999 10.6848 82.4885 10.7515C82.2772 10.8183 82.0714 10.8516 81.8712 10.8516C81.6598 10.8516 81.4485 10.8238 81.2371 10.7682C81.0369 10.7015 80.8589 10.6069 80.7032 10.4846C80.5474 10.3511 80.4195 10.1953 80.3194 10.0174C80.2193 9.83939 80.1692 9.6336 80.1692 9.4V9.14972C80.1692 9.11635 80.147 9.09966 80.1025 9.09966C80.058 9.09966 80.0358 9.11635 80.0358 9.14972L79.9523 9.55017C79.9301 9.67253 79.9023 9.80045 79.8689 9.93394C79.8467 10.0674 79.8355 10.2009 79.8355 10.3344C79.8355 10.5457 79.88 10.7237 79.969 10.8683C80.0691 11.0018 80.1915 11.113 80.3361 11.202C80.4918 11.291 80.6587 11.3578 80.8367 11.4023C81.0258 11.4356 81.2037 11.4523 81.3706 11.4523C81.7154 11.4523 82.077 11.3911 82.4552 11.2688C82.8445 11.1353 83.1949 10.9573 83.5063 10.7348C83.8289 10.5012 84.0903 10.2232 84.2906 9.90057C84.5019 9.57798 84.6076 9.22202 84.6076 8.83269Z" fill="#5B4A30" />
</svg>
