<svg width="24" height="24" viewBox="0 0 24 24" fill="none" xmlns="http://www.w3.org/2000/svg">
<path d="M18.1 9.30006L19.6 6.00006L15.5 5.60006C16.1 6.10006 16.6 6.70006 17 7.50006C17.3 8.10006 17.5 8.60006 17.7 9.20006C17.2 9.10006 16.6 9.00006 16 9.00006H15.6C14.8 7.20006 13.1 6.00006 11 6.00006C8.20005 6.00006 6.00005 8.20006 6.00005 11.0001C6.00005 13.1001 7.20005 14.8001 9.00005 15.6001V16.0001C9.00005 19.9001 12.1 23.0001 16 23.0001C19.9 23.0001 23 19.9001 23 16.0001C23 12.9001 20.9 10.2001 18.1 9.30006ZM16 21.0001C13.2 21.0001 11 18.8001 11 16.0001C11 13.2001 13.2 11.0001 16 11.0001C18.8 11.0001 21 13.2001 21 16.0001C21 18.8001 18.8 21.0001 16 21.0001ZM16.5 16.2001L19.4 17.9001L18.6 19.1001L15 17.0001V12.0001H16.5V16.2001ZM11 4.00006C10.2 4.00006 9.40005 4.20006 8.60005 4.40006L11 1.00006L13.4 4.40006C12.6 4.20006 11.8 4.00006 11 4.00006ZM4.90005 14.5001C5.30005 15.2001 5.90005 15.9001 6.50005 16.4001L2.40005 16.0001L4.20005 12.2001C4.30005 13.0001 4.50005 13.8001 4.90005 14.5001ZM4.10005 9.80006L2.30005 6.00006L6.50005 5.70006C5.90005 6.20006 5.40005 6.80006 4.90005 7.50006C4.50005 8.20006 4.20005 9.00006 4.10005 9.80006Z" fill="#212121"/>
</svg>
