<svg width="24" height="24" viewBox="0 0 24 24" fill="none" xmlns="http://www.w3.org/2000/svg">
<path d="M11.01 3.05013C6.51 3.54013 3 7.36013 3 12.0001C3 14.3871 3.94821 16.6763 5.63604 18.3641C7.32387 20.0519 9.61305 21.0001 12 21.0001C16.63 21.0001 20.45 17.5001 20.95 13.0001C21.04 12.2101 20.17 11.5801 19.41 12.0501C18.5937 12.5712 17.6523 12.8633 16.6844 12.8958C15.7165 12.9283 14.7576 12.7 13.9082 12.2349C13.0587 11.7698 12.3499 11.085 11.8559 10.252C11.3618 9.41902 11.1008 8.46858 11.1 7.50013C11.1 6.44013 11.41 5.44013 11.94 4.61013C12.39 3.94013 11.9 2.98013 11.01 3.05013Z" fill="#212121"/>
</svg>
